<?xml version="1.0" encoding="utf-8"?>
<!-- Generator: Adobe Illustrator 25.2.0, SVG Export Plug-In . SVG Version: 6.00 Build 0)  -->
<svg version="1.1" id="Outline" xmlns="http://www.w3.org/2000/svg" xmlns:xlink="http://www.w3.org/1999/xlink" x="0px" y="0px"
	 viewBox="0 0 512 512" style="enable-background:new 0 0 512 512;" xml:space="preserve">
<style type="text/css">
	.st0{fill:#BB0F32;}
</style>
<path class="st0" d="M472,417c0-0.3,0-0.7,0-1c0-17.7-14.3-32-32-32V236l28.8-21.6c3.5-2.7,4.3-7.7,1.6-11.2c-0.5-0.6-1-1.2-1.7-1.7
	L400,151.3V64c4.4,0,8-3.6,8-8V24c0-4.4-3.6-8-8-8h-80c-4.4,0-8,3.6-8,8v32c0,4.4,3.6,8,8,8v28.9l-59.3-43.3c-2.8-2.1-6.6-2.1-9.4,0
	l-208,152c-3.6,2.6-4.3,7.6-1.7,11.2c0.5,0.6,1,1.2,1.7,1.7L72,236v148c-17.7,0-32,14.3-32,32c0,0.3,0,0.7,0,1
	c-17.1,4.4-27.4,21.8-23,39c3.6,14.1,16.4,24,31,24h416c17.7,0,32-14.3,32-32C496,433.4,486.1,420.6,472,417z M328,32h64v16h-64V32z
	 M336,104V64h48v75.6L335.2,104H336z M256,65.9l194.6,142.2l-18.6,14L260.7,97.5c-2.8-2-6.6-2-9.4,0L80.1,222.1l-18.6-14L256,65.9z
	 M32,448c0-8.7,7-15.9,15.8-16h0c0.4,0.1,0.8,0.1,1.2,0.1c4.4,0.3,8.2-3.1,8.5-7.5c0.1-1.1-0.1-2.2-0.5-3.2c-0.7-1.7-1-3.6-1-5.4
	c0-8.8,7.2-16,16-16v64H48C39.2,464,32,456.8,32,448z M376,464h-96V288h96V464z M392,464V280c0-4.4-3.6-8-8-8H272c-4.4,0-8,3.6-8,8
	v184H88V236.1l168-122.2l168,122.2V464H392z M464,464h-24v-64c8.8,0,16,7.2,16,16c0,1.9-0.4,3.7-1,5.4c-1.5,4.2,0.6,8.7,4.8,10.3
	c1,0.4,2.1,0.5,3.2,0.5c0.4,0,0.8-0.1,1.2-0.1h0c8.8,0.1,15.9,7.3,15.9,16.1S472.8,464.1,464,464L464,464z"/>
<path class="st0" d="M224,272h-96c-4.4,0-8,3.6-8,8v112c0,4.4,3.6,8,8,8h96c4.4,0,8-3.6,8-8V280C232,275.6,228.4,272,224,272z
	 M216,328h-32v-40h32V328z M168,288v40h-32v-40H168z M136,344h32v40h-32V344z M184,384v-40h32v40H184z"/>
<circle class="st0" cx="304" cy="368" r="8"/>
</svg>
