<svg xmlns="http://www.w3.org/2000/svg" width="34.276" height="24" viewBox="0 0 34.276 24">
  <g id="blueprint" transform="translate(0 -37.497)">
    <path id="Path_52" data-name="Path 52" d="M33.316,37.5H.959A.959.959,0,0,0,0,38.456v3.275a.959.959,0,0,0,1.918,0V39.415h23.36v1.726a.959.959,0,0,0,1.918,0V39.415h5.161v9.123H15.739V45.29a.959.959,0,0,0-1.918,0V53.7a.959.959,0,0,0,1.918,0V50.456H32.357v9.123H27.2V57.853a.959.959,0,0,0-1.918,0v1.726H1.918V47.144a.959.959,0,1,0-1.918,0V60.538a.959.959,0,0,0,.959.959H33.316a.959.959,0,0,0,.959-.959V38.456A.959.959,0,0,0,33.316,37.5Z" fill="#8e846f"/>
  </g>
</svg>
