<svg xmlns="http://www.w3.org/2000/svg" width="112" height="112" viewBox="0 0 112 112">
  <g id="bus" transform="translate(1 1)">
    <path id="Path_75" data-name="Path 75" d="M106.777,32.871H102.91V8.594A8.6,8.6,0,0,0,94.316,0H15.684A8.6,8.6,0,0,0,7.09,8.594V32.871H3.223a3.223,3.223,0,0,0,0,6.445H7.09v67.461A3.223,3.223,0,0,0,10.313,110H29.219a3.223,3.223,0,0,0,3.223-3.223V96.035H77.559v10.742A3.223,3.223,0,0,0,80.781,110H99.688a3.223,3.223,0,0,0,3.223-3.223V39.316h3.867a3.223,3.223,0,0,0,0-6.445ZM13.535,89.59V58.223h82.93V89.59Zm0-65.742H51.777v27.93h-17.5l8.415-4.207a3.223,3.223,0,0,0-2.882-5.765L19.864,51.777H13.535Zm82.93,0v27.93h-17.5l8.415-4.207A3.223,3.223,0,0,0,84.5,41.805L64.552,51.777H58.223V23.848ZM15.684,6.445H94.316a2.151,2.151,0,0,1,2.148,2.148V17.4H13.535V8.594A2.151,2.151,0,0,1,15.684,6.445ZM26,103.555H13.535v-7.52H26Zm70.469,0H84v-7.52H96.465Z" fill="#8e846f" stroke="#fff" stroke-width="2"/>
    <path id="Path_76" data-name="Path 76" d="M225.973,297h-13.75a3.223,3.223,0,0,0,0,6.445h13.75a3.223,3.223,0,0,0,0-6.445Z" transform="translate(-164.098 -233.191)" fill="#8e846f" stroke="#fff" stroke-width="2"/>
    <path id="Path_77" data-name="Path 77" d="M225.973,361h-13.75a3.223,3.223,0,0,0,0,6.445h13.75a3.223,3.223,0,0,0,0-6.445Z" transform="translate(-164.098 -283.441)" fill="#8e846f" stroke="#fff" stroke-width="2"/>
    <path id="Path_78" data-name="Path 78" d="M339.1,297a10.1,10.1,0,1,0,10.1,10.1A10.109,10.109,0,0,0,339.1,297Zm0,13.75a3.652,3.652,0,1,1,3.652-3.652A3.656,3.656,0,0,1,339.1,310.75Z" transform="translate(-258.316 -233.191)" fill="#8e846f" stroke="#fff" stroke-width="2"/>
    <path id="Path_79" data-name="Path 79" d="M99.1,297a10.1,10.1,0,1,0,10.1,10.1A10.109,10.109,0,0,0,99.1,297Zm0,13.75a3.652,3.652,0,1,1,3.652-3.652A3.656,3.656,0,0,1,99.1,310.75Z" transform="translate(-69.879 -233.191)" fill="#8e846f" stroke="#fff" stroke-width="2"/>
  </g>
</svg>
