<svg xmlns="http://www.w3.org/2000/svg" width="112" height="112" viewBox="0 0 112 112">
  <g id="favela" transform="translate(1 1)">
    <path id="Path_68" data-name="Path 68" d="M80.223,79.336h33.086a3.223,3.223,0,0,0,3.223-3.223V63.223A3.223,3.223,0,0,0,113.309,60H80.223A3.223,3.223,0,0,0,77,63.223V76.113A3.223,3.223,0,0,0,80.223,79.336Zm3.223-12.891h26.641v6.445H83.445Z" transform="translate(-60.457 -47.109)" fill="#8e846f" stroke="#fff" stroke-width="2"/>
    <path id="Path_69" data-name="Path 69" d="M106.777,51.348H95.605V19.336h3.223a3.223,3.223,0,1,0,0-6.445s-30.085.022-30.293.065V6.445h.859a3.223,3.223,0,1,0,0-6.445H3.223a3.223,3.223,0,0,0,0,6.445h.859V38.457H3.223a3.223,3.223,0,0,0,0,6.445h.859V76.914H3.223a3.223,3.223,0,0,0,0,6.445h.859v23.418A3.223,3.223,0,0,0,7.3,110H102.7a3.223,3.223,0,0,0,3.223-3.223V57.793h.859a3.223,3.223,0,0,0,0-6.445ZM89.16,19.336V51.348H74.98V44.9h.9a3.223,3.223,0,0,0,0-6.445H68.535V19.271C68.744,19.314,89.16,19.336,89.16,19.336ZM62.09,6.445V38.457H10.527V6.445ZM68.535,44.9V76.914H10.527V44.9ZM10.527,83.359H62.09v20.2H10.527Zm88.945,20.2H68.535v-20.2h3.223a3.223,3.223,0,0,0,3.223-3.223V57.793H99.473Z" fill="#8e846f" stroke="#fff" stroke-width="2"/>
    <path id="Path_70" data-name="Path 70" d="M82.223,258.336H95.113a3.223,3.223,0,0,0,3.223-3.223V242.223A3.223,3.223,0,0,0,95.113,239H82.223A3.223,3.223,0,0,0,79,242.223v12.891A3.223,3.223,0,0,0,82.223,258.336Zm3.223-12.891h6.445v6.445H85.445Z" transform="translate(-62.027 -187.652)" fill="#8e846f" stroke="#fff" stroke-width="2"/>
    <path id="Path_71" data-name="Path 71" d="M202.223,258.336h12.891a3.223,3.223,0,0,0,3.223-3.223V242.223A3.223,3.223,0,0,0,215.113,239H202.223A3.223,3.223,0,0,0,199,242.223v12.891A3.223,3.223,0,0,0,202.223,258.336Zm3.223-12.891h6.445v6.445h-6.445Z" transform="translate(-156.246 -187.652)" fill="#8e846f" stroke="#fff" stroke-width="2"/>
    <path id="Path_72" data-name="Path 72" d="M394.223,311.031a3.223,3.223,0,0,0,3.223-3.223v-5.586a3.223,3.223,0,0,0-6.445,0v5.586A3.223,3.223,0,0,0,394.223,311.031Z" transform="translate(-306.996 -234.762)" fill="#8e846f" stroke="#fff" stroke-width="2"/>
    <path id="Path_73" data-name="Path 73" d="M394.223,408.031a3.223,3.223,0,0,0,3.223-3.223v-5.586a3.223,3.223,0,0,0-6.445,0v5.586A3.223,3.223,0,0,0,394.223,408.031Z" transform="translate(-306.996 -310.922)" fill="#8e846f" stroke="#fff" stroke-width="2"/>
  </g>
</svg>
