<svg xmlns="http://www.w3.org/2000/svg" width="26.596" height="24" viewBox="0 0 26.596 24">
  <g id="house-plan" transform="translate(0 -24.984)">
    <path id="Path_61" data-name="Path 61" d="M21.126,29.638c-2.214-1.107-.012-.089-10-4.585a.779.779,0,0,0-.64,0c-9.992,4.5-7.772,3.47-10.053,4.61a.779.779,0,0,0,.7,1.394l.585-.292V42.387a.779.779,0,0,0,.779.779H19.115a.779.779,0,0,0,.779-.779V30.765c.569.284.651.35.882.35a.779.779,0,0,0,.349-1.476ZM10.8,26.618l7.532,3.39V30.8H3.271v-.795ZM3.271,35.686H6.7v2.6H3.271Zm0,5.922V39.842H7.479a.779.779,0,0,0,.779-.779V34.907a.779.779,0,0,0-.779-.779H3.271V32.361H18.336v1.766H14.128a.779.779,0,0,0-.779.779v4.156a.779.779,0,0,0,.779.779h4.208v1.766Zm15.065-3.325H14.907v-2.6h3.429Z" transform="translate(0)" fill="#525156"/>
    <path id="Path_62" data-name="Path 62" d="M436.295,41.608h-.519V26.543h.519a.779.779,0,1,0,0-1.558h-2.545a.779.779,0,1,0,0,1.558h.468V41.608h-.468a.779.779,0,1,0,0,1.558h2.545a.779.779,0,1,0,0-1.558Z" transform="translate(-410.478 0)" fill="#525156"/>
    <path id="Path_63" data-name="Path 63" d="M50.373,408.985a.779.779,0,0,0-.779.779v.468H34.528v-.468a.779.779,0,1,0-1.558,0v2.493a.779.779,0,0,0,1.558,0v-.468H49.593v.468a.779.779,0,0,0,1.558,0v-2.493A.779.779,0,0,0,50.373,408.985Z" transform="translate(-31.257 -364.052)" fill="#525156"/>
  </g>
</svg>
