<svg xmlns="http://www.w3.org/2000/svg" width="30.135" height="24" viewBox="0 0 30.135 24">
  <g id="ic-bewerben" transform="translate(0 -52.115)">
    <g id="Group_2191" data-name="Group 2191" transform="translate(0 52.115)">
      <path id="Path_131" data-name="Path 131" d="M26.859,56.6H19.99L16.3,52.652a1.691,1.691,0,0,0-2.472,0L10.144,56.6H3.275A3.279,3.279,0,0,0,0,59.877V72.839a3.279,3.279,0,0,0,3.275,3.276H26.859a3.279,3.279,0,0,0,3.275-3.276V59.877A3.279,3.279,0,0,0,26.859,56.6ZM18.7,59.888h.467a1.687,1.687,0,0,0,1.655-1.347h6.039a1.339,1.339,0,0,1,1.272.928L18.7,64.18ZM15.067,54.17l3.527,3.779H18.45a1.693,1.693,0,0,0-1.691,1.691v5.509l-.977.488-.707.353-.707-.353-.993-.5v-5.5a1.693,1.693,0,0,0-1.691-1.691H11.54ZM3.275,58.541H9.314a1.687,1.687,0,0,0,1.655,1.347h.467v4.287L2,59.469A1.338,1.338,0,0,1,3.275,58.541Zm24.92,14.3a1.338,1.338,0,0,1-1.336,1.336H3.275a1.338,1.338,0,0,1-1.336-1.336V61.6l12.7,6.337a.97.97,0,0,0,.866,0L28.2,61.6V72.839Z" transform="translate(0 -52.115)" fill="#fe4a49"/>
    </g>
  </g>
</svg>
