<svg xmlns="http://www.w3.org/2000/svg" width="23.331" height="24" viewBox="0 0 23.331 24">
  <g id="ic-kontakt" transform="translate(-20.668 -19)">
    <path id="Path_132" data-name="Path 132" d="M114.958,3.144A10.664,10.664,0,0,0,107.368,0a.851.851,0,1,0,0,1.7,9.033,9.033,0,0,1,9.034,9.034.851.851,0,0,0,1.7,0A10.664,10.664,0,0,0,114.958,3.144Z" transform="translate(-74.104 19)" fill="#fe4a49"/>
    <path id="Path_133" data-name="Path 133" d="M111.459,49.371a.851.851,0,0,0,1.7,0,5.8,5.8,0,0,0-5.793-5.793h0a.851.851,0,0,0,0,1.7A4.1,4.1,0,0,1,111.459,49.371Z" transform="translate(-74.104 -19.636)" fill="#fe4a49"/>
    <path id="Path_134" data-name="Path 134" d="M17.755,43.3a2.568,2.568,0,0,0-2.274,1.36.851.851,0,0,0,1.4.96c.374-.547.544-.633.774-.622a10.956,10.956,0,0,1,3.926,2.876.88.88,0,0,1-.008.621,2.935,2.935,0,0,1-1.457,1.836,2.729,2.729,0,0,1-2.186-.074,24.039,24.039,0,0,1-7.886-5.134l0,0a24.035,24.035,0,0,1-5.124-7.875,2.73,2.73,0,0,1-.074-2.187A2.934,2.934,0,0,1,6.682,33.6a.878.878,0,0,1,.619-.009,10.976,10.976,0,0,1,2.877,3.918c.012.239-.075.408-.621.782a.851.851,0,0,0,.96,1.4,2.566,2.566,0,0,0,1.36-2.276C11.8,36.059,9.16,32.46,7.9,32a2.572,2.572,0,0,0-1.757-.01A4.578,4.578,0,0,0,3.3,34.346a4.378,4.378,0,0,0,.045,3.537,25.727,25.727,0,0,0,5.5,8.439l.017.017a25.734,25.734,0,0,0,8.43,5.49,5.046,5.046,0,0,0,1.9.4,3.9,3.9,0,0,0,1.637-.351,4.578,4.578,0,0,0,2.361-2.84,2.572,2.572,0,0,0-.009-1.753C22.714,46.014,19.116,43.371,17.755,43.3Z" transform="translate(17.719 -9.225)" fill="#fe4a49"/>
  </g>
</svg>
