<svg xmlns="http://www.w3.org/2000/svg" width="30" height="30" viewBox="0 0 30 30">
  <g id="ic-parkplatze" transform="translate(19486 -886)">
    <g id="ic-parkplatze-2" data-name="ic-parkplatze" transform="translate(-19483 889)">
      <path id="Path_146" data-name="Path 146" d="M359.109,64.219a2.109,2.109,0,0,0,0-4.219H357.7a.7.7,0,0,0-.7.7v4.219a.7.7,0,0,0,1.406,0v-.7Zm-.7-2.812h.7a.7.7,0,0,1,0,1.406h-.7Zm0,0" transform="translate(-340.266 -57.188)" fill="#fff"/>
      <path id="Path_147" data-name="Path 147" d="M24,5.625a5.625,5.625,0,1,0-6.328,5.581v4.148a4.416,4.416,0,0,0-1.032-.236l-1.082-2.434a3.05,3.05,0,0,0-2.784-1.809H7.148a3.049,3.049,0,0,0-2.784,1.809L3.293,15.094H3.047A3.05,3.05,0,0,0,0,18.141v3.281a.7.7,0,0,0,.7.7H2.676a2.577,2.577,0,0,0,4.96,0h5.119a2.577,2.577,0,0,0,4.917.135V23.3a.7.7,0,1,0,1.406,0V22.125h.844a.7.7,0,0,0,.7-.7V19.547a4.445,4.445,0,0,0-1.547-3.371V11.206A5.633,5.633,0,0,0,24,5.625ZM10.781,12.281h1.993a1.642,1.642,0,0,1,1.5.974l.817,1.838H10.781ZM5.156,22.594a1.172,1.172,0,1,1,1.172-1.172A1.173,1.173,0,0,1,5.156,22.594Zm4.219-1.875H7.636a2.577,2.577,0,0,0-4.96,0H1.406V18.141A1.642,1.642,0,0,1,3.047,16.5H9.375Zm0-5.625H4.832l.817-1.838a1.642,1.642,0,0,1,1.5-.974H9.375Zm5.859,7.5a1.172,1.172,0,1,1,1.172-1.172A1.173,1.173,0,0,1,15.234,22.594Zm3.984-1.875h-1.5a2.577,2.577,0,0,0-4.96,0H10.781V16.5h5.391a3.037,3.037,0,0,1,2.2.937h-.32a.7.7,0,0,0,0,1.406h1.089a3.039,3.039,0,0,1,.083.7ZM18.375,9.844a4.219,4.219,0,1,1,4.219-4.219A4.224,4.224,0,0,1,18.375,9.844Zm0,0" fill="#fff"/>
    </g>
    <rect id="Rectangle_116" data-name="Rectangle 116" width="30" height="30" transform="translate(-19486 886)" fill="none"/>
  </g>
</svg>
