<svg xmlns="http://www.w3.org/2000/svg" width="30" height="30" viewBox="0 0 30 30">
  <g id="ic-wohnungen" transform="translate(19656 -935)">
    <g id="ic-wohnungen-2" data-name="ic-wohnungen" transform="translate(-19655 913.016)">
      <path id="Path_143" data-name="Path 143" d="M27.886,31.127c-2.923-1.461-.015-.118-13.2-6.052a1.028,1.028,0,0,0-.844,0C.649,31.011,3.58,29.655.569,31.161A1.029,1.029,0,0,0,1.489,33l.772-.386V47.956a1.029,1.029,0,0,0,1.029,1.029H25.232a1.029,1.029,0,0,0,1.029-1.029V32.615c.751.375.859.462,1.165.462a1.029,1.029,0,0,0,.461-1.949ZM14.261,27.141,24.2,31.615v1.049H4.318V31.615ZM4.318,39.11H8.844v3.429H4.318Zm0,7.817V44.6H9.872A1.029,1.029,0,0,0,10.9,43.567V38.082a1.029,1.029,0,0,0-1.029-1.029H4.318V34.722H24.2v2.331H18.649a1.029,1.029,0,0,0-1.029,1.029v5.486A1.029,1.029,0,0,0,18.649,44.6H24.2v2.331ZM24.2,42.539H19.678V39.11H24.2Z" fill="#fff"/>
    </g>
    <rect id="Rectangle_113" data-name="Rectangle 113" width="30" height="30" transform="translate(-19656 935)" fill="none"/>
  </g>
</svg>
