<svg xmlns="http://www.w3.org/2000/svg" width="332" height="262" viewBox="0 0 332 262">
  <g id="img-flats" transform="translate(14759 -2458)">
    <rect id="veduta_esterna" data-name="veduta esterna" width="332" height="262" rx="8" transform="translate(-14759 2458)" fill="#f2f2f2"/>
    <rect id="veduta_esterna-2" data-name="veduta esterna" width="332" height="262" rx="8" transform="translate(-14759 2458)" fill="#fff"/>
    <g id="Group_2201" data-name="Group 2201" transform="translate(-83.999 125)">
      <path id="Path_168" data-name="Path 168" d="M33.408,44.864A13.323,13.323,0,0,1,22.709,58.2,15.059,15.059,0,0,1,13.4,57.123a9.994,9.994,0,0,1-5.269-5.31,15.168,15.168,0,0,1-.164-12.438c2.062-4.669,5.794-7.178,10.853-7.7a14.713,14.713,0,0,1,6.908.895c4.215,1.637,6.511,4.846,7.327,9.2C33.241,42.785,33.292,43.831,33.408,44.864Zm-5.678-.532c-.086-.613-.173-1.778-.423-2.908a7.172,7.172,0,0,0-3.355-4.99,7.417,7.417,0,0,0-10.764,3.944,14.057,14.057,0,0,0-.264,8.958c.894,3.26,2.876,4.878,6.233,5.218A6.815,6.815,0,0,0,26.1,51.2,12.679,12.679,0,0,0,27.73,44.332Z" transform="translate(-14568.707 2461.409)" fill="#b80e31"/>
      <path id="Path_169" data-name="Path 169" d="M829.07,44.861a13.323,13.323,0,0,1-10.7,13.337,15.057,15.057,0,0,1-9.313-1.075,9.994,9.994,0,0,1-5.27-5.309,15.168,15.168,0,0,1-.166-12.438c2.06-4.67,5.792-7.18,10.851-7.7a14.712,14.712,0,0,1,6.908.893c4.215,1.636,6.512,4.845,7.329,9.194C828.9,42.781,828.955,43.827,829.07,44.861Zm-5.677-.539c-.087-.619-.174-1.785-.426-2.914a7.159,7.159,0,0,0-3.366-4.982,7.419,7.419,0,0,0-10.757,3.968,14.073,14.073,0,0,0-.268,8.909c.893,3.292,2.888,4.919,6.261,5.254a6.812,6.812,0,0,0,6.907-3.324A12.667,12.667,0,0,0,823.393,44.321Z" transform="translate(-15285.951 2461.41)" fill="#b80e31"/>
      <path id="Path_170" data-name="Path 170" d="M38.986,395.461l-5.058,1.153-1.742-5.055c-.237-.689-.462-1.382-.724-2.061a.538.538,0,0,0-.381-.3c-3.021-.017-6.043-.013-9.087-.013l-2.783,7.392-4.572-1.05c.624-1.588,1.23-3.133,1.839-4.676q3.99-10.114,7.971-20.232a.663.663,0,0,1,.747-.514c1.372.03,2.745.018,4.117.006a.471.471,0,0,1,.539.347q4.537,12.382,9.088,24.759A2,2,0,0,1,38.986,395.461ZM26.823,374.554a77.3,77.3,0,0,1-3.276,10.629H30.01C28.8,381.657,27.4,378.236,26.823,374.554Z" transform="translate(-14575.859 2156.259)" fill="#006342"/>
      <path id="Path_166" data-name="Path 166" d="M837.346,381.075c-1.921,3.989-4.746,7.294-7.067,10.984l-4.4-1.916c.12-.185.207-.328.3-.465q3.89-5.509,7.79-11.011a.631.631,0,0,0,.025-.855q-3.329-5.04-6.622-10.1c-.1-.158-.2-.32-.342-.542l4.795-2.231,6.2,10.016c1.713-3.517,4.261-6.615,6.42-10.041l4.4,1.912c-.127.188-.234.356-.349.518q-3.664,5.127-7.338,10.247a.638.638,0,0,0-.022.86q3.523,5.379,7.015,10.779c.113.174.225.35.365.569l-4.749,2.264C841.652,388.378,839.015,385.054,837.346,381.075Z" transform="translate(-15307.145 2160.939)" fill="#006342"/>
      <path id="Path_167" data-name="Path 167" d="M591.011,370.625v3.991h-9.79v6.7H590.9c0,1.3.009,2.545-.021,3.789,0,.084-.3.228-.457.23-1.389.018-2.779.011-4.168.011h-5.094v7.258h9.85v3.988H575.886c.059-8.65.118-17.291.177-25.97Z" transform="translate(-15081.79 2155.789)" fill="#006342"/>
      <path id="Path_171" data-name="Path 171" d="M347.952,36.257v3.97h-6.825V62.245h-5.193V40.254h-6.69v-4Z" transform="translate(-14859.457 2457.203)" fill="#b80e31"/>
      <path id="Path_172" data-name="Path 172" d="M561.508,40.262v-4h18.715v3.968h-6.814V62.251h-5.194V40.262Z" transform="translate(-15068.829 2457.197)" fill="#b80e31"/>
      <path id="Path_173" data-name="Path 173" d="M359.9,370.51h5.111v21.941h9.1v4.042H359.726Q359.814,383.528,359.9,370.51Z" transform="translate(-14886.934 2155.893)" fill="#006342"/>
      <path id="Path_174" data-name="Path 174" d="M516.191,236.443c.129,1.574.025,3.122.061,4.675h-1.058c0-.038-.006-.076-.006-.113q.018-2.741.034-5.483c0-.111.029-.157.142-.18.376-.076.75-.165,1.124-.252.064-.015.107-.017.146.053.753,1.339,1.511,2.676,2.261,4.017.126.225.22.469.345.737-.1-1.59-.022-3.145-.053-4.709h1.07c0,.041,0,.083,0,.125q-.025,2.759-.047,5.518c0,.1-.031.141-.132.163-.379.082-.756.174-1.133.265-.06.014-.1.013-.136-.05-.763-1.352-1.531-2.7-2.291-4.054C516.395,236.936,516.307,236.7,516.191,236.443Z" transform="translate(-15027.074 2277.973)"/>
      <path id="Path_175" data-name="Path 175" d="M725.01,235.409c.793-.018,1.565-.049,2.338-.048a3.307,3.307,0,0,1,1.316.285,2.27,2.27,0,0,1,1.323,1.443,3.431,3.431,0,0,1-.054,2.41,3.048,3.048,0,0,1-2.289,1.849,3.437,3.437,0,0,1-.755.073c-.634,0-1.268-.021-1.921-.034C724.983,239.393,725,237.418,725.01,235.409Zm1.162.843v4.285c.244,0,.481,0,.718,0a1.777,1.777,0,0,0,1.589-.855,2.565,2.565,0,0,0,.212-2.4,1.531,1.531,0,0,0-1.166-1A5.947,5.947,0,0,0,726.172,236.252Z" transform="translate(-15216.18 2277.722)"/>
      <path id="Path_176" data-name="Path 176" d="M314.048,236.127H315.1c0,.039,0,.081,0,.122q-.01,1.843-.019,3.687a2.073,2.073,0,0,1-.7,1.651,2.406,2.406,0,0,1-1.3.541,3.146,3.146,0,0,1-1.534-.145,1.884,1.884,0,0,1-1.253-1.569,3.537,3.537,0,0,1-.044-.58c0-1.2.014-2.394.022-3.591,0-.035,0-.07.005-.114h1.171c0,.04,0,.082,0,.124-.008,1.205-.018,2.41-.023,3.615a2.408,2.408,0,0,0,.042.5,1.114,1.114,0,0,0,1,.9,1.25,1.25,0,0,0,1.427-.707,1.85,1.85,0,0,0,.128-.72q.008-1.784.018-3.568C314.048,236.227,314.048,236.18,314.048,236.127Z" transform="translate(-14842.337 2277.031)"/>
    </g>
    <g id="skyscraper" transform="translate(-14643 2489)">
      <path id="Path_177" data-name="Path 177" d="M216,112h3.333v5H216Zm0,0" transform="translate(-171 -88.667)"/>
      <path id="Path_178" data-name="Path 178" d="M248,112h3.333v5H248Zm0,0" transform="translate(-196.333 -88.667)"/>
      <path id="Path_179" data-name="Path 179" d="M280,112h3.333v5H280Zm0,0" transform="translate(-221.667 -88.667)"/>
      <path id="Path_180" data-name="Path 180" d="M216,152h3.333v5H216Zm0,0" transform="translate(-171 -120.333)"/>
      <path id="Path_181" data-name="Path 181" d="M248,152h3.333v5H248Zm0,0" transform="translate(-196.333 -120.333)"/>
      <path id="Path_182" data-name="Path 182" d="M280,152h3.333v5H280Zm0,0" transform="translate(-221.667 -120.333)"/>
      <path id="Path_183" data-name="Path 183" d="M216,192h3.333v5H216Zm0,0" transform="translate(-171 -152)"/>
      <path id="Path_184" data-name="Path 184" d="M248,192h3.333v5H248Zm0,0" transform="translate(-196.333 -152)"/>
      <path id="Path_185" data-name="Path 185" d="M280,192h3.333v5H280Zm0,0" transform="translate(-221.667 -152)"/>
      <path id="Path_186" data-name="Path 186" d="M216,232h3.333v5H216Zm0,0" transform="translate(-171 -183.667)"/>
      <path id="Path_187" data-name="Path 187" d="M248,232h3.333v5H248Zm0,0" transform="translate(-196.333 -183.667)"/>
      <path id="Path_188" data-name="Path 188" d="M280,232h3.333v5H280Zm0,0" transform="translate(-221.667 -183.667)"/>
      <path id="Path_189" data-name="Path 189" d="M216,272h3.333v5H216Zm0,0" transform="translate(-171 -215.333)"/>
      <path id="Path_190" data-name="Path 190" d="M248,272h3.333v5H248Zm0,0" transform="translate(-196.333 -215.333)"/>
      <path id="Path_191" data-name="Path 191" d="M184,112h3.333v5H184Zm0,0" transform="translate(-145.667 -88.667)"/>
      <path id="Path_192" data-name="Path 192" d="M216,72h3.333v5H216Zm0,0" transform="translate(-171 -57)"/>
      <path id="Path_193" data-name="Path 193" d="M248,72h3.333v5H248Zm0,0" transform="translate(-196.333 -57)"/>
      <path id="Path_194" data-name="Path 194" d="M280,72h3.333v5H280Zm0,0" transform="translate(-221.667 -57)"/>
      <path id="Path_195" data-name="Path 195" d="M184,72h3.333v5H184Zm0,0" transform="translate(-145.667 -57)"/>
      <path id="Path_196" data-name="Path 196" d="M216,32h3.333v5H216Zm0,0" transform="translate(-171 -25.333)"/>
      <path id="Path_197" data-name="Path 197" d="M248,32h3.333v5H248Zm0,0" transform="translate(-196.333 -25.333)"/>
      <path id="Path_198" data-name="Path 198" d="M280,32h3.333v5H280Zm0,0" transform="translate(-221.667 -25.333)"/>
      <path id="Path_199" data-name="Path 199" d="M184,32h3.333v5H184Zm0,0" transform="translate(-145.667 -25.333)"/>
      <path id="Path_200" data-name="Path 200" d="M184,152h3.333v5H184Zm0,0" transform="translate(-145.667 -120.333)"/>
      <path id="Path_201" data-name="Path 201" d="M184,192h3.333v5H184Zm0,0" transform="translate(-145.667 -152)"/>
      <path id="Path_202" data-name="Path 202" d="M184,232h3.333v5H184Zm0,0" transform="translate(-145.667 -183.667)"/>
      <path id="Path_203" data-name="Path 203" d="M184,272h3.333v5H184Zm0,0" transform="translate(-145.667 -215.333)"/>
      <path id="Path_204" data-name="Path 204" d="M280,272h3.333v5H280Zm0,0" transform="translate(-221.667 -215.333)"/>
      <path id="Path_205" data-name="Path 205" d="M216,312h3.333v5H216Zm0,0" transform="translate(-171 -247)"/>
      <path id="Path_206" data-name="Path 206" d="M248,312h3.333v5H248Zm0,0" transform="translate(-196.333 -247)"/>
      <path id="Path_207" data-name="Path 207" d="M280,312h3.333v5H280Zm0,0" transform="translate(-221.667 -247)"/>
      <path id="Path_208" data-name="Path 208" d="M216,352h3.333v5H216Zm0,0" transform="translate(-171 -278.667)"/>
      <path id="Path_209" data-name="Path 209" d="M248,352h3.333v5H248Zm0,0" transform="translate(-196.333 -278.667)"/>
      <path id="Path_210" data-name="Path 210" d="M280,352h3.333v5H280Zm0,0" transform="translate(-221.667 -278.667)"/>
      <path id="Path_211" data-name="Path 211" d="M216,392h3.333v5H216Zm0,0" transform="translate(-171 -310.333)"/>
      <path id="Path_212" data-name="Path 212" d="M248,392h3.333v5H248Zm0,0" transform="translate(-196.333 -310.333)"/>
      <path id="Path_213" data-name="Path 213" d="M184,312h3.333v5H184Zm0,0" transform="translate(-145.667 -247)"/>
      <path id="Path_214" data-name="Path 214" d="M184,352h3.333v5H184Zm0,0" transform="translate(-145.667 -278.667)"/>
      <path id="Path_215" data-name="Path 215" d="M184,392h3.333v5H184Zm0,0" transform="translate(-145.667 -310.333)"/>
      <path id="Path_216" data-name="Path 216" d="M280,392h3.333v5H280Zm0,0" transform="translate(-221.667 -310.333)"/>
      <path id="Path_217" data-name="Path 217" d="M56,184h3.333v5H56Zm0,0" transform="translate(-44.333 -145.667)"/>
      <path id="Path_218" data-name="Path 218" d="M88,184h3.333v5H88Zm0,0" transform="translate(-69.667 -145.667)"/>
      <path id="Path_219" data-name="Path 219" d="M120,184h3.333v5H120Zm0,0" transform="translate(-95 -145.667)"/>
      <path id="Path_220" data-name="Path 220" d="M56,224h3.333v5H56Zm0,0" transform="translate(-44.333 -177.333)"/>
      <path id="Path_221" data-name="Path 221" d="M88,224h3.333v5H88Zm0,0" transform="translate(-69.667 -177.333)"/>
      <path id="Path_222" data-name="Path 222" d="M120,224h3.333v5H120Zm0,0" transform="translate(-95 -177.333)"/>
      <path id="Path_223" data-name="Path 223" d="M56,264h3.333v5H56Zm0,0" transform="translate(-44.333 -209)"/>
      <path id="Path_224" data-name="Path 224" d="M88,264h3.333v5H88Zm0,0" transform="translate(-69.667 -209)"/>
      <path id="Path_225" data-name="Path 225" d="M120,264h3.333v5H120Zm0,0" transform="translate(-95 -209)"/>
      <path id="Path_226" data-name="Path 226" d="M56,304h3.333v5H56Zm0,0" transform="translate(-44.333 -240.667)"/>
      <path id="Path_227" data-name="Path 227" d="M88,304h3.333v5H88Zm0,0" transform="translate(-69.667 -240.667)"/>
      <path id="Path_228" data-name="Path 228" d="M120,304h3.333v5H120Zm0,0" transform="translate(-95 -240.667)"/>
      <path id="Path_229" data-name="Path 229" d="M56,344h3.333v5H56Zm0,0" transform="translate(-44.333 -272.333)"/>
      <path id="Path_230" data-name="Path 230" d="M88,344h3.333v5H88Zm0,0" transform="translate(-69.667 -272.333)"/>
      <path id="Path_231" data-name="Path 231" d="M56,144h3.333v5H56Zm0,0" transform="translate(-44.333 -114)"/>
      <path id="Path_232" data-name="Path 232" d="M88,144h3.333v5H88Zm0,0" transform="translate(-69.667 -114)"/>
      <path id="Path_233" data-name="Path 233" d="M120,144h3.333v5H120Zm0,0" transform="translate(-95 -114)"/>
      <path id="Path_234" data-name="Path 234" d="M56,104h3.333v5H56Zm0,0" transform="translate(-44.333 -82.333)"/>
      <path id="Path_235" data-name="Path 235" d="M88,104h3.333v5H88Zm0,0" transform="translate(-69.667 -82.333)"/>
      <path id="Path_236" data-name="Path 236" d="M120,104h3.333v5H120Zm0,0" transform="translate(-95 -82.333)"/>
      <path id="Path_237" data-name="Path 237" d="M120,344h3.333v5H120Zm0,0" transform="translate(-95 -272.333)"/>
      <path id="Path_238" data-name="Path 238" d="M56,384h3.333v5H56Zm0,0" transform="translate(-44.333 -304)"/>
      <path id="Path_239" data-name="Path 239" d="M88,384h3.333v5H88Zm0,0" transform="translate(-69.667 -304)"/>
      <path id="Path_240" data-name="Path 240" d="M120,384h3.333v5H120Zm0,0" transform="translate(-95 -304)"/>
      <path id="Path_241" data-name="Path 241" d="M56,424h3.333v5H56Zm0,0" transform="translate(-44.333 -335.667)"/>
      <path id="Path_242" data-name="Path 242" d="M88,424h3.333v5H88Zm0,0" transform="translate(-69.667 -335.667)"/>
      <path id="Path_243" data-name="Path 243" d="M120,424h3.333v5H120Zm0,0" transform="translate(-95 -335.667)"/>
      <path id="Path_244" data-name="Path 244" d="M95,18.333h1.667V15h-5V11.667h1.667V8.333h-25v-5H70V0H30V3.333h1.667v5h-25v3.333H8.333V15h-5v3.333H5V96.667H0V100H100V96.667H95ZM31.667,96.667H8.333V18.333H31.667Zm0-81.667h-20V11.667h20ZM48.333,96.667H45V93.333h3.333Zm6.667,0H51.667V93.333H55ZM65,10V96.667H58.333v-5A1.667,1.667,0,0,0,56.667,90H43.333a1.667,1.667,0,0,0-1.667,1.667v5H35V3.333H65Zm3.333,1.667h20V15h-20Zm23.333,85H68.333V18.333H91.667Zm0,0"/>
      <path id="Path_245" data-name="Path 245" d="M408,184h3.333v5H408Zm0,0" transform="translate(-323 -145.667)"/>
      <path id="Path_246" data-name="Path 246" d="M376,184h3.333v5H376Zm0,0" transform="translate(-297.667 -145.667)"/>
      <path id="Path_247" data-name="Path 247" d="M344,184h3.333v5H344Zm0,0" transform="translate(-272.333 -145.667)"/>
      <path id="Path_248" data-name="Path 248" d="M408,224h3.333v5H408Zm0,0" transform="translate(-323 -177.333)"/>
      <path id="Path_249" data-name="Path 249" d="M376,224h3.333v5H376Zm0,0" transform="translate(-297.667 -177.333)"/>
      <path id="Path_250" data-name="Path 250" d="M344,224h3.333v5H344Zm0,0" transform="translate(-272.333 -177.333)"/>
      <path id="Path_251" data-name="Path 251" d="M408,264h3.333v5H408Zm0,0" transform="translate(-323 -209)"/>
      <path id="Path_252" data-name="Path 252" d="M376,264h3.333v5H376Zm0,0" transform="translate(-297.667 -209)"/>
      <path id="Path_253" data-name="Path 253" d="M344,264h3.333v5H344Zm0,0" transform="translate(-272.333 -209)"/>
      <path id="Path_254" data-name="Path 254" d="M408,304h3.333v5H408Zm0,0" transform="translate(-323 -240.667)"/>
      <path id="Path_255" data-name="Path 255" d="M376,304h3.333v5H376Zm0,0" transform="translate(-297.667 -240.667)"/>
      <path id="Path_256" data-name="Path 256" d="M344,304h3.333v5H344Zm0,0" transform="translate(-272.333 -240.667)"/>
      <path id="Path_257" data-name="Path 257" d="M408,344h3.333v5H408Zm0,0" transform="translate(-323 -272.333)"/>
      <path id="Path_258" data-name="Path 258" d="M376,344h3.333v5H376Zm0,0" transform="translate(-297.667 -272.333)"/>
      <path id="Path_259" data-name="Path 259" d="M408,144h3.333v5H408Zm0,0" transform="translate(-323 -114)"/>
      <path id="Path_260" data-name="Path 260" d="M376,144h3.333v5H376Zm0,0" transform="translate(-297.667 -114)"/>
      <path id="Path_261" data-name="Path 261" d="M344,144h3.333v5H344Zm0,0" transform="translate(-272.333 -114)"/>
      <path id="Path_262" data-name="Path 262" d="M408,104h3.333v5H408Zm0,0" transform="translate(-323 -82.333)"/>
      <path id="Path_263" data-name="Path 263" d="M376,104h3.333v5H376Zm0,0" transform="translate(-297.667 -82.333)"/>
      <path id="Path_264" data-name="Path 264" d="M344,104h3.333v5H344Zm0,0" transform="translate(-272.333 -82.333)"/>
      <path id="Path_265" data-name="Path 265" d="M344,344h3.333v5H344Zm0,0" transform="translate(-272.333 -272.333)"/>
      <path id="Path_266" data-name="Path 266" d="M408,384h3.333v5H408Zm0,0" transform="translate(-323 -304)"/>
      <path id="Path_267" data-name="Path 267" d="M376,384h3.333v5H376Zm0,0" transform="translate(-297.667 -304)"/>
      <path id="Path_268" data-name="Path 268" d="M344,384h3.333v5H344Zm0,0" transform="translate(-272.333 -304)"/>
      <path id="Path_269" data-name="Path 269" d="M408,424h3.333v5H408Zm0,0" transform="translate(-323 -335.667)"/>
      <path id="Path_270" data-name="Path 270" d="M376,424h3.333v5H376Zm0,0" transform="translate(-297.667 -335.667)"/>
      <path id="Path_271" data-name="Path 271" d="M344,424h3.333v5H344Zm0,0" transform="translate(-272.333 -335.667)"/>
    </g>
  </g>
</svg>
