<?xml version="1.0" encoding="utf-8"?>
<!-- Generator: Adobe Illustrator 25.2.0, SVG Export Plug-In . SVG Version: 6.00 Build 0)  -->
<svg version="1.1" id="Layer_1" xmlns="http://www.w3.org/2000/svg" xmlns:xlink="http://www.w3.org/1999/xlink" x="0px" y="0px"
	 viewBox="0 0 332 262" style="enable-background:new 0 0 332 262;" xml:space="preserve">
<style type="text/css">
	.st0{fill:#F2F2F2;}
	.st1{fill:#FFFFFF;}
	.st2{fill:#B80E31;}
	.st3{fill:#006342;}
	.st4{fill:#BB0F32;}
</style>
<path id="veduta_esterna" class="st0" d="M8,0h316c4.4,0,8,3.6,8,8v246c0,4.4-3.6,8-8,8H8c-4.4,0-8-3.6-8-8V8C0,3.6,3.6,0,8,0z"/>
<path id="veduta_esterna-2" class="st1" d="M8,0h316c4.4,0,8,3.6,8,8v246c0,4.4-3.6,8-8,8H8c-4.4,0-8-3.6-8-8V8C0,3.6,3.6,0,8,0z"/>
<g id="Group_2201" transform="translate(-83.999 125)">
	<path id="Path_168" class="st2" d="M223.7,48.3c0.1,6.4-4.4,12.1-10.7,13.3c-3.1,0.6-6.4,0.3-9.3-1.1c-2.4-1-4.3-2.9-5.3-5.3
		c-1.8-3.9-1.9-8.5-0.2-12.4c2.1-4.7,5.8-7.2,10.9-7.7c2.3-0.3,4.7,0,6.9,0.9c4.2,1.6,6.5,4.8,7.3,9.2
		C223.5,46.2,223.6,47.2,223.7,48.3z M218,47.7c-0.1-0.6-0.2-1.8-0.4-2.9c-0.3-2.1-1.6-3.9-3.4-5c-3.5-2.1-8.1-0.9-10.2,2.6
		c-0.2,0.4-0.4,0.9-0.6,1.3c-1.1,2.9-1.2,6-0.3,9c0.9,3.3,2.9,4.9,6.2,5.2c2.8,0.4,5.5-0.9,6.9-3.4C217.6,52.5,218.1,50.1,218,47.7z
		"/>
	<path id="Path_169" class="st2" d="M302.1,48.3c0.1,6.4-4.4,12.1-10.7,13.3c-3.1,0.6-6.4,0.3-9.3-1.1c-2.4-1-4.3-2.9-5.3-5.3
		c-1.8-3.9-1.9-8.5-0.2-12.4c2.1-4.7,5.8-7.2,10.9-7.7c2.3-0.3,4.7,0,6.9,0.9c4.2,1.6,6.5,4.8,7.3,9.2
		C301.9,46.2,302,47.2,302.1,48.3z M296.4,47.7c-0.1-0.6-0.2-1.8-0.4-2.9c-0.3-2.1-1.6-3.9-3.4-5c-3.5-2.1-8.1-0.9-10.2,2.7
		c-0.2,0.4-0.4,0.9-0.6,1.3c-1.1,2.9-1.1,6-0.3,8.9c0.9,3.3,2.9,4.9,6.3,5.3c2.8,0.4,5.5-0.9,6.9-3.3
		C296,52.5,296.6,50.1,296.4,47.7L296.4,47.7z"/>
	<path id="Path_170" class="st3" d="M222.1,93.7l-5.1,1.2l-1.7-5.1c-0.2-0.7-0.5-1.4-0.7-2.1c-0.1-0.2-0.2-0.3-0.4-0.3
		c-3,0-6,0-9.1,0l-2.8,7.4l-4.6-1c0.6-1.6,1.2-3.1,1.8-4.7c2.7-6.7,5.3-13.5,8-20.2c0.1-0.3,0.4-0.6,0.7-0.5c1.4,0,2.7,0,4.1,0
		c0.2,0,0.5,0.1,0.5,0.3c3,8.3,6.1,16.5,9.1,24.8C222.1,93.6,222.1,93.6,222.1,93.7z M210,72.8c-0.8,3.6-1.9,7.2-3.3,10.6h6.5
		C211.9,79.9,210.5,76.5,210,72.8z"/>
	<path id="Path_166" class="st3" d="M289.2,84c-1.9,4-4.7,7.3-7.1,11l-4.4-1.9c0.1-0.2,0.2-0.3,0.3-0.5c2.6-3.7,5.2-7.3,7.8-11
		c0.2-0.2,0.2-0.6,0-0.9c-2.2-3.4-4.4-6.7-6.6-10.1c-0.1-0.2-0.2-0.3-0.3-0.5l4.8-2.2l6.2,10c1.7-3.5,4.3-6.6,6.4-10l4.4,1.9
		c-0.1,0.2-0.2,0.4-0.3,0.5c-2.4,3.4-4.9,6.8-7.3,10.2c-0.2,0.2-0.2,0.6,0,0.9c2.3,3.6,4.7,7.2,7,10.8c0.1,0.2,0.2,0.4,0.4,0.6
		l-4.7,2.3C293.5,91.3,290.9,88,289.2,84z"/>
	<path id="Path_167" class="st3" d="M268.2,68.4v4h-9.8v6.7h9.7c0,1.3,0,2.5,0,3.8c0,0.1-0.3,0.2-0.5,0.2c-1.4,0-2.8,0-4.2,0h-5.1
		v7.3h9.8v4h-15.1c0.1-8.6,0.1-17.3,0.2-26L268.2,68.4z"/>
	<path id="Path_171" class="st2" d="M247.5,35.5v4h-6.8v22h-5.2v-22h-6.7v-4L247.5,35.5z"/>
	<path id="Path_172" class="st2" d="M251.7,39.5v-4h18.7v4h-6.8v22h-5.2v-22H251.7z"/>
	<path id="Path_173" class="st3" d="M232,68.4h5.1v21.9h9.1v4h-14.4C231.9,85.7,231.9,77.1,232,68.4z"/>
	<path id="Path_174" d="M248.1,56.4c0.1,1.6,0,3.1,0.1,4.7h-1.1c0,0,0-0.1,0-0.1c0-1.8,0-3.7,0-5.5c0-0.1,0-0.2,0.1-0.2
		c0.4-0.1,0.8-0.2,1.1-0.3c0.1,0,0.1,0,0.1,0.1c0.8,1.3,1.5,2.7,2.3,4c0.1,0.2,0.2,0.5,0.3,0.7c-0.1-1.6,0-3.1-0.1-4.7h1.1
		c0,0,0,0.1,0,0.1c0,1.8,0,3.7,0,5.5c0,0.1,0,0.1-0.1,0.2c-0.4,0.1-0.8,0.2-1.1,0.3c-0.1,0-0.1,0-0.1-0.1c-0.8-1.4-1.5-2.7-2.3-4.1
		C248.3,56.9,248.2,56.7,248.1,56.4z"/>
	<path id="Path_175" d="M267.8,55.1c0.8,0,1.6,0,2.3,0c0.5,0,0.9,0.1,1.3,0.3c0.6,0.3,1.1,0.8,1.3,1.4c0.3,0.8,0.3,1.6-0.1,2.4
		c-0.4,1-1.3,1.7-2.3,1.8c-0.2,0.1-0.5,0.1-0.8,0.1c-0.6,0-1.3,0-1.9,0C267.8,59.1,267.8,57.1,267.8,55.1z M269,56v4.3
		c0.2,0,0.5,0,0.7,0c0.6,0,1.3-0.3,1.6-0.9c0.5-0.7,0.5-1.6,0.2-2.4c-0.2-0.5-0.6-0.9-1.2-1C269.9,55.9,269.4,55.9,269,56z"/>
	<path id="Path_176" d="M230.7,55.2h1.1c0,0,0,0.1,0,0.1c0,1.2,0,2.5,0,3.7c0,0.6-0.2,1.2-0.7,1.7c-0.4,0.3-0.8,0.5-1.3,0.5
		c-0.5,0.1-1,0-1.5-0.1c-0.7-0.2-1.2-0.8-1.3-1.6c0-0.2,0-0.4,0-0.6c0-1.2,0-2.4,0-3.6c0,0,0-0.1,0-0.1h1.2c0,0,0,0.1,0,0.1
		c0,1.2,0,2.4,0,3.6c0,0.2,0,0.3,0,0.5c0.1,0.5,0.5,0.9,1,0.9c0.6,0.1,1.2-0.2,1.4-0.7c0.1-0.2,0.1-0.5,0.1-0.7c0-1.2,0-2.4,0-3.6
		C230.7,55.3,230.7,55.2,230.7,55.2z"/>
</g>
<g id="skyscraper" transform="translate(-14643 2489)">
	<path id="Path_177" class="st4" d="M14804-2434.7h3.3v5h-3.3V-2434.7z"/>
	<path id="Path_178" class="st4" d="M14810.7-2434.7h3.3v5h-3.3V-2434.7z"/>
	<path id="Path_179" class="st4" d="M14817.3-2434.7h3.3v5h-3.3V-2434.7z"/>
	<path id="Path_180" class="st4" d="M14804-2426.3h3.3v5h-3.3V-2426.3z"/>
	<path id="Path_181" class="st4" d="M14810.7-2426.3h3.3v5h-3.3V-2426.3z"/>
	<path id="Path_182" class="st4" d="M14817.3-2426.3h3.3v5h-3.3V-2426.3z"/>
	<path id="Path_183" class="st4" d="M14804-2418h3.3v5h-3.3V-2418z"/>
	<path id="Path_184" class="st4" d="M14810.7-2418h3.3v5h-3.3V-2418z"/>
	<path id="Path_185" class="st4" d="M14817.3-2418h3.3v5h-3.3V-2418z"/>
	<path id="Path_186" class="st4" d="M14804-2409.7h3.3v5h-3.3V-2409.7z"/>
	<path id="Path_187" class="st4" d="M14810.7-2409.7h3.3v5h-3.3V-2409.7z"/>
	<path id="Path_188" class="st4" d="M14817.3-2409.7h3.3v5h-3.3V-2409.7z"/>
	<path id="Path_189" class="st4" d="M14804-2401.3h3.3v5h-3.3V-2401.3z"/>
	<path id="Path_190" class="st4" d="M14810.7-2401.3h3.3v5h-3.3V-2401.3z"/>
	<path id="Path_191" class="st4" d="M14797.3-2434.7h3.3v5h-3.3V-2434.7z"/>
	<path id="Path_192" class="st4" d="M14804-2443h3.3v5h-3.3V-2443z"/>
	<path id="Path_193" class="st4" d="M14810.7-2443h3.3v5h-3.3V-2443z"/>
	<path id="Path_194" class="st4" d="M14817.3-2443h3.3v5h-3.3V-2443z"/>
	<path id="Path_195" class="st4" d="M14797.3-2443h3.3v5h-3.3V-2443z"/>
	<path id="Path_196" class="st4" d="M14804-2451.3h3.3v5h-3.3V-2451.3z"/>
	<path id="Path_197" class="st4" d="M14810.7-2451.3h3.3v5h-3.3V-2451.3z"/>
	<path id="Path_198" class="st4" d="M14817.3-2451.3h3.3v5h-3.3V-2451.3z"/>
	<path id="Path_199" class="st4" d="M14797.3-2451.3h3.3v5h-3.3V-2451.3z"/>
	<path id="Path_200" class="st4" d="M14797.3-2426.3h3.3v5h-3.3V-2426.3z"/>
	<path id="Path_201" class="st4" d="M14797.3-2418h3.3v5h-3.3V-2418z"/>
	<path id="Path_202" class="st4" d="M14797.3-2409.7h3.3v5h-3.3V-2409.7z"/>
	<path id="Path_203" class="st4" d="M14797.3-2401.3h3.3v5h-3.3V-2401.3z"/>
	<path id="Path_204" class="st4" d="M14817.3-2401.3h3.3v5h-3.3V-2401.3z"/>
	<path id="Path_205" class="st4" d="M14804-2393h3.3v5h-3.3V-2393z"/>
	<path id="Path_206" class="st4" d="M14810.7-2393h3.3v5h-3.3V-2393z"/>
	<path id="Path_207" class="st4" d="M14817.3-2393h3.3v5h-3.3V-2393z"/>
	<path id="Path_208" class="st4" d="M14804-2384.7h3.3v5h-3.3V-2384.7z"/>
	<path id="Path_209" class="st4" d="M14810.7-2384.7h3.3v5h-3.3V-2384.7z"/>
	<path id="Path_210" class="st4" d="M14817.3-2384.7h3.3v5h-3.3V-2384.7z"/>
	<path id="Path_211" class="st4" d="M14804-2376.3h3.3v5h-3.3V-2376.3z"/>
	<path id="Path_212" class="st4" d="M14810.7-2376.3h3.3v5h-3.3V-2376.3z"/>
	<path id="Path_213" class="st4" d="M14797.3-2393h3.3v5h-3.3V-2393z"/>
	<path id="Path_214" class="st4" d="M14797.3-2384.7h3.3v5h-3.3V-2384.7z"/>
	<path id="Path_215" class="st4" d="M14797.3-2376.3h3.3v5h-3.3V-2376.3z"/>
	<path id="Path_216" class="st4" d="M14817.3-2376.3h3.3v5h-3.3V-2376.3z"/>
	<path id="Path_217" class="st4" d="M14770.7-2419.7h3.3v5h-3.3V-2419.7z"/>
	<path id="Path_218" class="st4" d="M14777.3-2419.7h3.3v5h-3.3V-2419.7z"/>
	<path id="Path_219" class="st4" d="M14784-2419.7h3.3v5h-3.3V-2419.7z"/>
	<path id="Path_220" class="st4" d="M14770.7-2411.3h3.3v5h-3.3V-2411.3z"/>
	<path id="Path_221" class="st4" d="M14777.3-2411.3h3.3v5h-3.3V-2411.3z"/>
	<path id="Path_222" class="st4" d="M14784-2411.3h3.3v5h-3.3V-2411.3z"/>
	<path id="Path_223" class="st4" d="M14770.7-2403h3.3v5h-3.3V-2403z"/>
	<path id="Path_224" class="st4" d="M14777.3-2403h3.3v5h-3.3V-2403z"/>
	<path id="Path_225" class="st4" d="M14784-2403h3.3v5h-3.3V-2403z"/>
	<path id="Path_226" class="st4" d="M14770.7-2394.7h3.3v5h-3.3V-2394.7z"/>
	<path id="Path_227" class="st4" d="M14777.3-2394.7h3.3v5h-3.3V-2394.7z"/>
	<path id="Path_228" class="st4" d="M14784-2394.7h3.3v5h-3.3V-2394.7z"/>
	<path id="Path_229" class="st4" d="M14770.7-2386.3h3.3v5h-3.3V-2386.3z"/>
	<path id="Path_230" class="st4" d="M14777.3-2386.3h3.3v5h-3.3V-2386.3z"/>
	<path id="Path_231" class="st4" d="M14770.7-2428h3.3v5h-3.3V-2428z"/>
	<path id="Path_232" class="st4" d="M14777.3-2428h3.3v5h-3.3V-2428z"/>
	<path id="Path_233" class="st4" d="M14784-2428h3.3v5h-3.3V-2428z"/>
	<path id="Path_234" class="st4" d="M14770.7-2436.3h3.3v5h-3.3V-2436.3z"/>
	<path id="Path_235" class="st4" d="M14777.3-2436.3h3.3v5h-3.3V-2436.3z"/>
	<path id="Path_236" class="st4" d="M14784-2436.3h3.3v5h-3.3V-2436.3z"/>
	<path id="Path_237" class="st4" d="M14784-2386.3h3.3v5h-3.3V-2386.3z"/>
	<path id="Path_238" class="st4" d="M14770.7-2378h3.3v5h-3.3V-2378z"/>
	<path id="Path_239" class="st4" d="M14777.3-2378h3.3v5h-3.3V-2378z"/>
	<path id="Path_240" class="st4" d="M14784-2378h3.3v5h-3.3V-2378z"/>
	<path id="Path_241" class="st4" d="M14770.7-2369.7h3.3v5h-3.3V-2369.7z"/>
	<path id="Path_242" class="st4" d="M14777.3-2369.7h3.3v5h-3.3V-2369.7z"/>
	<path id="Path_243" class="st4" d="M14784-2369.7h3.3v5h-3.3V-2369.7z"/>
	<path id="Path_244" class="st4" d="M14854-2439.7h1.7v-3.3h-5v-3.3h1.7v-3.3h-25v-5h1.7v-3.3h-40v3.3h1.7v5h-25v3.3h1.7v3.3h-5v3.3
		h1.7v78.3h-5v3.3h100v-3.3h-5V-2439.7z M14790.7-2361.3h-23.3v-78.3h23.3V-2361.3z M14790.7-2443h-20v-3.3h20V-2443z
		 M14807.3-2361.3h-3.3v-3.3h3.3V-2361.3z M14814-2361.3h-3.3v-3.3h3.3V-2361.3z M14824-2448v86.7h-6.7v-5c0-0.9-0.7-1.7-1.7-1.7
		h-13.3c-0.9,0-1.7,0.7-1.7,1.7v5h-6.7v-93.3h30V-2448z M14827.3-2446.3h20v3.3h-20V-2446.3z M14850.7-2361.3h-23.3v-78.3h23.3
		L14850.7-2361.3z"/>
	<path id="Path_245" class="st4" d="M14844-2419.7h3.3v5h-3.3V-2419.7z"/>
	<path id="Path_246" class="st4" d="M14837.3-2419.7h3.3v5h-3.3V-2419.7z"/>
	<path id="Path_247" class="st4" d="M14830.7-2419.7h3.3v5h-3.3V-2419.7z"/>
	<path id="Path_248" class="st4" d="M14844-2411.3h3.3v5h-3.3V-2411.3z"/>
	<path id="Path_249" class="st4" d="M14837.3-2411.3h3.3v5h-3.3V-2411.3z"/>
	<path id="Path_250" class="st4" d="M14830.7-2411.3h3.3v5h-3.3V-2411.3z"/>
	<path id="Path_251" class="st4" d="M14844-2403h3.3v5h-3.3V-2403z"/>
	<path id="Path_252" class="st4" d="M14837.3-2403h3.3v5h-3.3V-2403z"/>
	<path id="Path_253" class="st4" d="M14830.7-2403h3.3v5h-3.3V-2403z"/>
	<path id="Path_254" class="st4" d="M14844-2394.7h3.3v5h-3.3V-2394.7z"/>
	<path id="Path_255" class="st4" d="M14837.3-2394.7h3.3v5h-3.3V-2394.7z"/>
	<path id="Path_256" class="st4" d="M14830.7-2394.7h3.3v5h-3.3V-2394.7z"/>
	<path id="Path_257" class="st4" d="M14844-2386.3h3.3v5h-3.3V-2386.3z"/>
	<path id="Path_258" class="st4" d="M14837.3-2386.3h3.3v5h-3.3V-2386.3z"/>
	<path id="Path_259" class="st4" d="M14844-2428h3.3v5h-3.3V-2428z"/>
	<path id="Path_260" class="st4" d="M14837.3-2428h3.3v5h-3.3V-2428z"/>
	<path id="Path_261" class="st4" d="M14830.7-2428h3.3v5h-3.3V-2428z"/>
	<path id="Path_262" class="st4" d="M14844-2436.3h3.3v5h-3.3V-2436.3z"/>
	<path id="Path_263" class="st4" d="M14837.3-2436.3h3.3v5h-3.3V-2436.3z"/>
	<path id="Path_264" class="st4" d="M14830.7-2436.3h3.3v5h-3.3V-2436.3z"/>
	<path id="Path_265" class="st4" d="M14830.7-2386.3h3.3v5h-3.3V-2386.3z"/>
	<path id="Path_266" class="st4" d="M14844-2378h3.3v5h-3.3V-2378z"/>
	<path id="Path_267" class="st4" d="M14837.3-2378h3.3v5h-3.3V-2378z"/>
	<path id="Path_268" class="st4" d="M14830.7-2378h3.3v5h-3.3V-2378z"/>
	<path id="Path_269" class="st4" d="M14844-2369.7h3.3v5h-3.3V-2369.7z"/>
	<path id="Path_270" class="st4" d="M14837.3-2369.7h3.3v5h-3.3V-2369.7z"/>
	<path id="Path_271" class="st4" d="M14830.7-2369.7h3.3v5h-3.3V-2369.7z"/>
</g>
</svg>
