<?xml version="1.0" encoding="utf-8"?>
<!-- Generator: Adobe Illustrator 25.2.0, SVG Export Plug-In . SVG Version: 6.00 Build 0)  -->
<svg version="1.1" id="Layer_1" xmlns="http://www.w3.org/2000/svg" xmlns:xlink="http://www.w3.org/1999/xlink" x="0px" y="0px"
	 viewBox="0 0 332 262" style="enable-background:new 0 0 332 262;" xml:space="preserve">
<style type="text/css">
	.st0{fill:#F2F2F2;}
	.st1{fill:#FFFFFF;}
	.st2{fill:#B80E31;}
	.st3{fill:#006342;}
	.st4{fill:#BB0F32;}
</style>
<path id="veduta_esterna" class="st0" d="M8,0h316c4.4,0,8,3.6,8,8v246c0,4.4-3.6,8-8,8H8c-4.4,0-8-3.6-8-8V8C0,3.6,3.6,0,8,0z"/>
<path id="veduta_esterna-2" class="st1" d="M8,0h316c4.4,0,8,3.6,8,8v246c0,4.4-3.6,8-8,8H8c-4.4,0-8-3.6-8-8V8C0,3.6,3.6,0,8,0z"/>
<g id="Group_2200" transform="translate(-83.999 125)">
	<path id="Path_100" class="st2" d="M223.7,48.3c0.1,6.4-4.4,12.1-10.7,13.3c-3.1,0.6-6.4,0.3-9.3-1.1c-2.4-1-4.3-2.9-5.3-5.3
		c-1.8-3.9-1.9-8.5-0.2-12.4c2.1-4.7,5.8-7.2,10.9-7.7c2.3-0.3,4.7,0,6.9,0.9c4.2,1.6,6.5,4.8,7.3,9.2
		C223.5,46.2,223.6,47.2,223.7,48.3z M218,47.7c-0.1-0.6-0.2-1.8-0.4-2.9c-0.3-2.1-1.6-3.9-3.4-5c-3.5-2.1-8.1-0.9-10.2,2.6
		c-0.2,0.4-0.4,0.9-0.6,1.3c-1.1,2.9-1.2,6-0.3,9c0.9,3.3,2.9,4.9,6.2,5.2c2.8,0.4,5.5-0.9,6.9-3.4C217.6,52.5,218.1,50.1,218,47.7z
		"/>
	<path id="Path_101" class="st2" d="M302.1,48.3c0.1,6.4-4.4,12.1-10.7,13.3c-3.1,0.6-6.4,0.3-9.3-1.1c-2.4-1-4.3-2.9-5.3-5.3
		c-1.8-3.9-1.9-8.5-0.2-12.4c2.1-4.7,5.8-7.2,10.9-7.7c2.3-0.3,4.7,0,6.9,0.9c4.2,1.6,6.5,4.8,7.3,9.2
		C301.9,46.2,302,47.2,302.1,48.3z M296.4,47.7c-0.1-0.6-0.2-1.8-0.4-2.9c-0.3-2.1-1.6-3.9-3.4-5c-3.5-2.1-8.1-0.9-10.2,2.7
		c-0.2,0.4-0.4,0.9-0.6,1.3c-1.1,2.9-1.1,6-0.3,8.9c0.9,3.3,2.9,4.9,6.3,5.3c2.8,0.4,5.5-0.9,6.9-3.3
		C296,52.5,296.6,50.1,296.4,47.7L296.4,47.7z"/>
	<path id="Path_102" class="st3" d="M222.1,93.7l-5.1,1.2l-1.7-5.1c-0.2-0.7-0.5-1.4-0.7-2.1c-0.1-0.2-0.2-0.3-0.4-0.3
		c-3,0-6,0-9.1,0l-2.8,7.4l-4.6-1c0.6-1.6,1.2-3.1,1.8-4.7c2.7-6.7,5.3-13.5,8-20.2c0.1-0.3,0.4-0.6,0.7-0.5c1.4,0,2.7,0,4.1,0
		c0.2,0,0.5,0.1,0.5,0.3c3,8.3,6.1,16.5,9.1,24.8C222.1,93.6,222.1,93.6,222.1,93.7z M210,72.8c-0.8,3.6-1.9,7.2-3.3,10.6h6.5
		C211.9,79.9,210.5,76.5,210,72.8z"/>
	<path id="Path_103" class="st3" d="M289.2,84c-1.9,4-4.7,7.3-7.1,11l-4.4-1.9c0.1-0.2,0.2-0.3,0.3-0.5c2.6-3.7,5.2-7.3,7.8-11
		c0.2-0.2,0.2-0.6,0-0.9c-2.2-3.4-4.4-6.7-6.6-10.1c-0.1-0.2-0.2-0.3-0.3-0.5l4.8-2.2l6.2,10c1.7-3.5,4.3-6.6,6.4-10l4.4,1.9
		c-0.1,0.2-0.2,0.4-0.3,0.5c-2.4,3.4-4.9,6.8-7.3,10.2c-0.2,0.2-0.2,0.6,0,0.9c2.3,3.6,4.7,7.2,7,10.8c0.1,0.2,0.2,0.4,0.4,0.6
		l-4.7,2.3C293.5,91.3,290.9,88,289.2,84z"/>
	<path id="Path_104" class="st3" d="M268.2,68.4v4h-9.8v6.7h9.7c0,1.3,0,2.5,0,3.8c0,0.1-0.3,0.2-0.5,0.2c-1.4,0-2.8,0-4.2,0h-5.1
		v7.3h9.8v4h-15.1c0.1-8.6,0.1-17.3,0.2-26L268.2,68.4z"/>
	<path id="Path_105" class="st2" d="M247.5,35.5v4h-6.8v22h-5.2v-22h-6.7v-4L247.5,35.5z"/>
	<path id="Path_106" class="st2" d="M251.7,39.5v-4h18.7v4h-6.8v22h-5.2v-22H251.7z"/>
	<path id="Path_107" class="st3" d="M232,68.4h5.1v21.9h9.1v4h-14.4C231.9,85.7,231.9,77.1,232,68.4z"/>
	<path id="Path_108" d="M248.1,56.4c0.1,1.6,0,3.1,0.1,4.7h-1.1c0,0,0-0.1,0-0.1c0-1.8,0-3.7,0-5.5c0-0.1,0-0.2,0.1-0.2
		c0.4-0.1,0.8-0.2,1.1-0.3c0.1,0,0.1,0,0.1,0.1c0.8,1.3,1.5,2.7,2.3,4c0.1,0.2,0.2,0.5,0.3,0.7c-0.1-1.6,0-3.1-0.1-4.7h1.1
		c0,0,0,0.1,0,0.1c0,1.8,0,3.7,0,5.5c0,0.1,0,0.1-0.1,0.2c-0.4,0.1-0.8,0.2-1.1,0.3c-0.1,0-0.1,0-0.1-0.1c-0.8-1.4-1.5-2.7-2.3-4.1
		C248.3,56.9,248.2,56.7,248.1,56.4z"/>
	<path id="Path_109" d="M267.8,55.1c0.8,0,1.6,0,2.3,0c0.5,0,0.9,0.1,1.3,0.3c0.6,0.3,1.1,0.8,1.3,1.4c0.3,0.8,0.3,1.6-0.1,2.4
		c-0.4,1-1.3,1.7-2.3,1.8c-0.2,0.1-0.5,0.1-0.8,0.1c-0.6,0-1.3,0-1.9,0C267.8,59.1,267.8,57.1,267.8,55.1z M269,56v4.3
		c0.2,0,0.5,0,0.7,0c0.6,0,1.3-0.3,1.6-0.9c0.5-0.7,0.5-1.6,0.2-2.4c-0.2-0.5-0.6-0.9-1.2-1C269.9,55.9,269.4,55.9,269,56z"/>
	<path id="Path_110" d="M230.7,55.2h1.1c0,0,0,0.1,0,0.1c0,1.2,0,2.5,0,3.7c0,0.6-0.2,1.2-0.7,1.7c-0.4,0.3-0.8,0.5-1.3,0.5
		c-0.5,0.1-1,0-1.5-0.1c-0.7-0.2-1.2-0.8-1.3-1.6c0-0.2,0-0.4,0-0.6c0-1.2,0-2.4,0-3.6c0,0,0-0.1,0-0.1h1.2c0,0,0,0.1,0,0.1
		c0,1.2,0,2.4,0,3.6c0,0.2,0,0.3,0,0.5c0.1,0.5,0.5,0.9,1,0.9c0.6,0.1,1.2-0.2,1.4-0.7c0.1-0.2,0.1-0.5,0.1-0.7c0-1.2,0-2.4,0-3.6
		C230.7,55.3,230.7,55.2,230.7,55.2z"/>
</g>
<g id="home" transform="translate(-15043.984 2473)">
	<path id="Path_157" class="st4" d="M15256.3-2355.6c0-0.1,0-0.1,0-0.2c0-3.8-3.1-6.9-6.9-6.9l0,0v-31.9l6.2-4.7
		c0.8-0.6,0.9-1.7,0.3-2.4c-0.1-0.1-0.2-0.3-0.4-0.4l-14.8-10.8v-18.8c1,0,1.7-0.8,1.7-1.7l0,0v-6.9c0-1-0.8-1.7-1.7-1.7h-17.2
		c-1,0-1.7,0.8-1.7,1.7v6.9c0,1,0.8,1.7,1.7,1.7v6.2l-12.8-9.3c-0.6-0.4-1.4-0.4-2,0l-44.8,32.8c-0.8,0.6-0.9,1.6-0.4,2.4
		c0.1,0.1,0.2,0.3,0.4,0.4l6.2,4.7v31.9c-3.8,0-6.9,3.1-6.9,6.9l0,0c0,0.1,0,0.1,0,0.2c-3.7,1-5.9,4.8-4.9,8.4
		c0.8,3,3.5,5.1,6.6,5.1h89.7c3.8,0,6.9-3.1,6.9-6.9C15261.4-2352.1,15259.3-2354.8,15256.3-2355.6z M15225.2-2438.6h13.8v3.5h-13.8
		V-2438.6z M15227-2423v-8.6h10.3v16.3l-10.5-7.7L15227-2423z M15209.7-2431.2l41.9,30.6l-4,3l-36.9-26.8c-0.6-0.4-1.4-0.4-2,0
		l-36.9,26.8l-4-3L15209.7-2431.2z M15161.4-2348.9c0-1.9,1.5-3.4,3.4-3.4l0,0c0.1,0,0.2,0,0.3,0c1,0.1,1.8-0.7,1.8-1.6
		c0-0.2,0-0.5-0.1-0.7c-0.1-0.4-0.2-0.8-0.2-1.2c0-1.9,1.5-3.4,3.4-3.4v13.8h-5.2C15163-2345.5,15161.4-2347,15161.4-2348.9z
		 M15235.6-2345.5h-20.7v-37.9h20.7V-2345.5z M15239-2345.5v-39.6c0-1-0.8-1.7-1.7-1.7c0,0,0,0,0,0h-24.1c-1,0-1.7,0.8-1.7,1.7
		c0,0,0,0,0,0v39.7h-37.9v-49.1l36.2-26.3l36.2,26.3v49.1L15239-2345.5z M15254.5-2345.5h-5.2v-13.8c1.9,0,3.4,1.5,3.4,3.4
		c0,0.4-0.1,0.8-0.2,1.2c-0.3,0.9,0.1,1.9,1,2.2c0.2,0.1,0.5,0.1,0.7,0.1c0.1,0,0.2,0,0.3,0l0,0c1.9,0,3.4,1.6,3.4,3.5
		C15258-2347,15256.4-2345.4,15254.5-2345.5L15254.5-2345.5L15254.5-2345.5z"/>
	<path id="Path_158" class="st4" d="M15202.8-2386.8h-20.7c-1,0-1.7,0.8-1.7,1.7v24.1c0,1,0.8,1.7,1.7,1.7h20.7c1,0,1.7-0.8,1.7-1.7
		v-24.1C15204.5-2386.1,15203.8-2386.8,15202.8-2386.8z M15201.1-2374.8h-6.9v-8.6h6.9V-2374.8z M15190.7-2383.4v8.6h-6.9v-8.6
		H15190.7z M15183.8-2371.3h6.9v8.6h-6.9V-2371.3z M15194.2-2362.7v-8.6h6.9v8.6H15194.2z"/>
	<circle id="Ellipse_4" class="st4" cx="15220.1" cy="-2366.1" r="1.7"/>
</g>
</svg>
