<?xml version="1.0" encoding="utf-8"?>
<!-- Generator: Adobe Illustrator 25.2.0, SVG Export Plug-In . SVG Version: 6.00 Build 0)  -->
<svg version="1.1" id="Layer_1" xmlns="http://www.w3.org/2000/svg" xmlns:xlink="http://www.w3.org/1999/xlink" x="0px" y="0px"
	 viewBox="0 0 100 99.8" style="enable-background:new 0 0 100 99.8;" xml:space="preserve">
<style type="text/css">
	.st0{fill:#BB0F32;}
</style>
<g id="skyscraper" transform="translate(-14643 2489)">
	<path id="Path_177" class="st0" d="M14687.8-2465.8h3.3v5h-3.3V-2465.8z"/>
	<path id="Path_178" class="st0" d="M14694.5-2465.8h3.3v5h-3.3V-2465.8z"/>
	<path id="Path_179" class="st0" d="M14701.1-2465.8h3.3v5h-3.3V-2465.8z"/>
	<path id="Path_180" class="st0" d="M14687.8-2457.4h3.3v5h-3.3V-2457.4z"/>
	<path id="Path_181" class="st0" d="M14694.5-2457.4h3.3v5h-3.3V-2457.4z"/>
	<path id="Path_182" class="st0" d="M14701.1-2457.4h3.3v5h-3.3V-2457.4z"/>
	<path id="Path_183" class="st0" d="M14687.8-2449.1h3.3v5h-3.3V-2449.1z"/>
	<path id="Path_184" class="st0" d="M14694.5-2449.1h3.3v5h-3.3V-2449.1z"/>
	<path id="Path_185" class="st0" d="M14701.1-2449.1h3.3v5h-3.3V-2449.1z"/>
	<path id="Path_186" class="st0" d="M14687.8-2440.8h3.3v5h-3.3V-2440.8z"/>
	<path id="Path_187" class="st0" d="M14694.5-2440.8h3.3v5h-3.3V-2440.8z"/>
	<path id="Path_188" class="st0" d="M14701.1-2440.8h3.3v5h-3.3V-2440.8z"/>
	<path id="Path_189" class="st0" d="M14687.8-2432.4h3.3v5h-3.3V-2432.4z"/>
	<path id="Path_190" class="st0" d="M14694.5-2432.4h3.3v5h-3.3V-2432.4z"/>
	<path id="Path_191" class="st0" d="M14681.1-2465.8h3.3v5h-3.3V-2465.8z"/>
	<path id="Path_192" class="st0" d="M14687.8-2474.1h3.3v5h-3.3V-2474.1z"/>
	<path id="Path_193" class="st0" d="M14694.5-2474.1h3.3v5h-3.3V-2474.1z"/>
	<path id="Path_194" class="st0" d="M14701.1-2474.1h3.3v5h-3.3V-2474.1z"/>
	<path id="Path_195" class="st0" d="M14681.1-2474.1h3.3v5h-3.3V-2474.1z"/>
	<path id="Path_196" class="st0" d="M14687.8-2482.4h3.3v5h-3.3V-2482.4z"/>
	<path id="Path_197" class="st0" d="M14694.5-2482.4h3.3v5h-3.3V-2482.4z"/>
	<path id="Path_198" class="st0" d="M14701.1-2482.4h3.3v5h-3.3V-2482.4z"/>
	<path id="Path_199" class="st0" d="M14681.1-2482.4h3.3v5h-3.3V-2482.4z"/>
	<path id="Path_200" class="st0" d="M14681.1-2457.4h3.3v5h-3.3V-2457.4z"/>
	<path id="Path_201" class="st0" d="M14681.1-2449.1h3.3v5h-3.3V-2449.1z"/>
	<path id="Path_202" class="st0" d="M14681.1-2440.8h3.3v5h-3.3V-2440.8z"/>
	<path id="Path_203" class="st0" d="M14681.1-2432.4h3.3v5h-3.3V-2432.4z"/>
	<path id="Path_204" class="st0" d="M14701.1-2432.4h3.3v5h-3.3V-2432.4z"/>
	<path id="Path_205" class="st0" d="M14687.8-2424.1h3.3v5h-3.3V-2424.1z"/>
	<path id="Path_206" class="st0" d="M14694.5-2424.1h3.3v5h-3.3V-2424.1z"/>
	<path id="Path_207" class="st0" d="M14701.1-2424.1h3.3v5h-3.3V-2424.1z"/>
	<path id="Path_208" class="st0" d="M14687.8-2415.8h3.3v5h-3.3V-2415.8z"/>
	<path id="Path_209" class="st0" d="M14694.5-2415.8h3.3v5h-3.3V-2415.8z"/>
	<path id="Path_210" class="st0" d="M14701.1-2415.8h3.3v5h-3.3V-2415.8z"/>
	<path id="Path_211" class="st0" d="M14687.8-2407.4h3.3v5h-3.3V-2407.4z"/>
	<path id="Path_212" class="st0" d="M14694.5-2407.4h3.3v5h-3.3V-2407.4z"/>
	<path id="Path_213" class="st0" d="M14681.1-2424.1h3.3v5h-3.3V-2424.1z"/>
	<path id="Path_214" class="st0" d="M14681.1-2415.8h3.3v5h-3.3V-2415.8z"/>
	<path id="Path_215" class="st0" d="M14681.1-2407.4h3.3v5h-3.3V-2407.4z"/>
	<path id="Path_216" class="st0" d="M14701.1-2407.4h3.3v5h-3.3V-2407.4z"/>
	<path id="Path_217" class="st0" d="M14654.5-2450.8h3.3v5h-3.3V-2450.8z"/>
	<path id="Path_218" class="st0" d="M14661.1-2450.8h3.3v5h-3.3V-2450.8z"/>
	<path id="Path_219" class="st0" d="M14667.8-2450.8h3.3v5h-3.3V-2450.8z"/>
	<path id="Path_220" class="st0" d="M14654.5-2442.4h3.3v5h-3.3V-2442.4z"/>
	<path id="Path_221" class="st0" d="M14661.1-2442.4h3.3v5h-3.3V-2442.4z"/>
	<path id="Path_222" class="st0" d="M14667.8-2442.4h3.3v5h-3.3V-2442.4z"/>
	<path id="Path_223" class="st0" d="M14654.5-2434.1h3.3v5h-3.3V-2434.1z"/>
	<path id="Path_224" class="st0" d="M14661.1-2434.1h3.3v5h-3.3V-2434.1z"/>
	<path id="Path_225" class="st0" d="M14667.8-2434.1h3.3v5h-3.3V-2434.1z"/>
	<path id="Path_226" class="st0" d="M14654.5-2425.8h3.3v5h-3.3V-2425.8z"/>
	<path id="Path_227" class="st0" d="M14661.1-2425.8h3.3v5h-3.3V-2425.8z"/>
	<path id="Path_228" class="st0" d="M14667.8-2425.8h3.3v5h-3.3V-2425.8z"/>
	<path id="Path_229" class="st0" d="M14654.5-2417.4h3.3v5h-3.3V-2417.4z"/>
	<path id="Path_230" class="st0" d="M14661.1-2417.4h3.3v5h-3.3V-2417.4z"/>
	<path id="Path_231" class="st0" d="M14654.5-2459.1h3.3v5h-3.3V-2459.1z"/>
	<path id="Path_232" class="st0" d="M14661.1-2459.1h3.3v5h-3.3V-2459.1z"/>
	<path id="Path_233" class="st0" d="M14667.8-2459.1h3.3v5h-3.3V-2459.1z"/>
	<path id="Path_234" class="st0" d="M14654.5-2467.4h3.3v5h-3.3V-2467.4z"/>
	<path id="Path_235" class="st0" d="M14661.1-2467.4h3.3v5h-3.3V-2467.4z"/>
	<path id="Path_236" class="st0" d="M14667.8-2467.4h3.3v5h-3.3V-2467.4z"/>
	<path id="Path_237" class="st0" d="M14667.8-2417.4h3.3v5h-3.3V-2417.4z"/>
	<path id="Path_238" class="st0" d="M14654.5-2409.1h3.3v5h-3.3V-2409.1z"/>
	<path id="Path_239" class="st0" d="M14661.1-2409.1h3.3v5h-3.3V-2409.1z"/>
	<path id="Path_240" class="st0" d="M14667.8-2409.1h3.3v5h-3.3V-2409.1z"/>
	<path id="Path_241" class="st0" d="M14654.5-2400.8h3.3v5h-3.3V-2400.8z"/>
	<path id="Path_242" class="st0" d="M14661.1-2400.8h3.3v5h-3.3V-2400.8z"/>
	<path id="Path_243" class="st0" d="M14667.8-2400.8h3.3v5h-3.3V-2400.8z"/>
	<path id="Path_244" class="st0" d="M14737.8-2470.8h1.7v-3.3h-5v-3.3h1.7v-3.3h-25v-5h1.7v-3.3h-40v3.3h1.7v5h-25v3.3h1.7v3.3h-5
		v3.3h1.7v78.3h-5v3.3h100v-3.3h-5v-78.3H14737.8z M14674.5-2392.4h-23.3v-78.3h23.3V-2392.4z M14674.5-2474.1h-20v-3.3h20V-2474.1z
		 M14691.1-2392.4h-3.3v-3.3h3.3V-2392.4z M14697.8-2392.4h-3.3v-3.3h3.3V-2392.4z M14707.8-2479.1v86.7h-6.7v-5
		c0-0.9-0.7-1.7-1.7-1.7h-13.3c-0.9,0-1.7,0.7-1.7,1.7v5h-6.7v-93.3h30v6.6H14707.8z M14711.1-2477.4h20v3.3h-20V-2477.4z
		 M14734.5-2392.4h-23.3v-78.3h23.3V-2392.4z"/>
	<path id="Path_245" class="st0" d="M14727.8-2450.8h3.3v5h-3.3V-2450.8z"/>
	<path id="Path_246" class="st0" d="M14721.1-2450.8h3.3v5h-3.3V-2450.8z"/>
	<path id="Path_247" class="st0" d="M14714.5-2450.8h3.3v5h-3.3V-2450.8z"/>
	<path id="Path_248" class="st0" d="M14727.8-2442.4h3.3v5h-3.3V-2442.4z"/>
	<path id="Path_249" class="st0" d="M14721.1-2442.4h3.3v5h-3.3V-2442.4z"/>
	<path id="Path_250" class="st0" d="M14714.5-2442.4h3.3v5h-3.3V-2442.4z"/>
	<path id="Path_251" class="st0" d="M14727.8-2434.1h3.3v5h-3.3V-2434.1z"/>
	<path id="Path_252" class="st0" d="M14721.1-2434.1h3.3v5h-3.3V-2434.1z"/>
	<path id="Path_253" class="st0" d="M14714.5-2434.1h3.3v5h-3.3V-2434.1z"/>
	<path id="Path_254" class="st0" d="M14727.8-2425.8h3.3v5h-3.3V-2425.8z"/>
	<path id="Path_255" class="st0" d="M14721.1-2425.8h3.3v5h-3.3V-2425.8z"/>
	<path id="Path_256" class="st0" d="M14714.5-2425.8h3.3v5h-3.3V-2425.8z"/>
	<path id="Path_257" class="st0" d="M14727.8-2417.4h3.3v5h-3.3V-2417.4z"/>
	<path id="Path_258" class="st0" d="M14721.1-2417.4h3.3v5h-3.3V-2417.4z"/>
	<path id="Path_259" class="st0" d="M14727.8-2459.1h3.3v5h-3.3V-2459.1z"/>
	<path id="Path_260" class="st0" d="M14721.1-2459.1h3.3v5h-3.3V-2459.1z"/>
	<path id="Path_261" class="st0" d="M14714.5-2459.1h3.3v5h-3.3V-2459.1z"/>
	<path id="Path_262" class="st0" d="M14727.8-2467.4h3.3v5h-3.3V-2467.4z"/>
	<path id="Path_263" class="st0" d="M14721.1-2467.4h3.3v5h-3.3V-2467.4z"/>
	<path id="Path_264" class="st0" d="M14714.5-2467.4h3.3v5h-3.3V-2467.4z"/>
	<path id="Path_265" class="st0" d="M14714.5-2417.4h3.3v5h-3.3V-2417.4z"/>
	<path id="Path_266" class="st0" d="M14727.8-2409.1h3.3v5h-3.3V-2409.1z"/>
	<path id="Path_267" class="st0" d="M14721.1-2409.1h3.3v5h-3.3V-2409.1z"/>
	<path id="Path_268" class="st0" d="M14714.5-2409.1h3.3v5h-3.3V-2409.1z"/>
	<path id="Path_269" class="st0" d="M14727.8-2400.8h3.3v5h-3.3V-2400.8z"/>
	<path id="Path_270" class="st0" d="M14721.1-2400.8h3.3v5h-3.3V-2400.8z"/>
	<path id="Path_271" class="st0" d="M14714.5-2400.8h3.3v5h-3.3V-2400.8z"/>
</g>
</svg>
