<?xml version="1.0" encoding="utf-8"?>
<!-- Generator: Adobe Illustrator 25.2.0, SVG Export Plug-In . SVG Version: 6.00 Build 0)  -->
<svg version="1.1" id="Layer_1" xmlns="http://www.w3.org/2000/svg" xmlns:xlink="http://www.w3.org/1999/xlink" x="0px" y="0px"
	 viewBox="0 0 332 262" style="enable-background:new 0 0 332 262;" xml:space="preserve">
<style type="text/css">
	.st0{fill:#F2F2F2;}
	.st1{fill:#FFFFFF;}
	.st2{fill:#B80E31;}
	.st3{fill:#006342;}
	.st4{fill:#222222;}
</style>
<path id="veduta_esterna" class="st0" d="M8,0h316c4.4,0,8,3.6,8,8v246c0,4.4-3.6,8-8,8H8c-4.4,0-8-3.6-8-8V8C0,3.6,3.6,0,8,0z"/>
<path id="veduta_esterna-2" class="st1" d="M8,0h316c4.4,0,8,3.6,8,8v246c0,4.4-3.6,8-8,8H8c-4.4,0-8-3.6-8-8V8C0,3.6,3.6,0,8,0z"/>
<g id="Group_2201" transform="translate(-83.999 125)">
	<path id="Path_168" class="st2" d="M223.7,48.3c0.1,6.4-4.4,12.1-10.7,13.3c-3.1,0.6-6.4,0.3-9.3-1.1c-2.4-1-4.3-2.9-5.3-5.3
		c-1.8-3.9-1.9-8.5-0.2-12.4c2.1-4.7,5.8-7.2,10.9-7.7c2.3-0.3,4.7,0,6.9,0.9c4.2,1.6,6.5,4.8,7.3,9.2
		C223.5,46.2,223.6,47.2,223.7,48.3z M218,47.7c-0.1-0.6-0.2-1.8-0.4-2.9c-0.3-2.1-1.6-3.9-3.4-5c-3.5-2.1-8.1-0.9-10.2,2.6
		c-0.2,0.4-0.4,0.9-0.6,1.3c-1.1,2.9-1.2,6-0.3,9c0.9,3.3,2.9,4.9,6.2,5.2c2.8,0.4,5.5-0.9,6.9-3.4C217.6,52.5,218.1,50.1,218,47.7z
		"/>
	<path id="Path_169" class="st2" d="M302.1,48.3c0.1,6.4-4.4,12.1-10.7,13.3c-3.1,0.6-6.4,0.3-9.3-1.1c-2.4-1-4.3-2.9-5.3-5.3
		c-1.8-3.9-1.9-8.5-0.2-12.4c2.1-4.7,5.8-7.2,10.9-7.7c2.3-0.3,4.7,0,6.9,0.9c4.2,1.6,6.5,4.8,7.3,9.2
		C301.9,46.2,302,47.2,302.1,48.3z M296.4,47.7c-0.1-0.6-0.2-1.8-0.4-2.9c-0.3-2.1-1.6-3.9-3.4-5c-3.5-2.1-8.1-0.9-10.2,2.7
		c-0.2,0.4-0.4,0.9-0.6,1.3c-1.1,2.9-1.1,6-0.3,8.9c0.9,3.3,2.9,4.9,6.3,5.3c2.8,0.4,5.5-0.9,6.9-3.3
		C296,52.5,296.6,50.1,296.4,47.7L296.4,47.7z"/>
	<path id="Path_170" class="st3" d="M222.1,93.7l-5.1,1.2l-1.7-5.1c-0.2-0.7-0.5-1.4-0.7-2.1c-0.1-0.2-0.2-0.3-0.4-0.3
		c-3,0-6,0-9.1,0l-2.8,7.4l-4.6-1c0.6-1.6,1.2-3.1,1.8-4.7c2.7-6.7,5.3-13.5,8-20.2c0.1-0.3,0.4-0.6,0.7-0.5c1.4,0,2.7,0,4.1,0
		c0.2,0,0.5,0.1,0.5,0.3c3,8.3,6.1,16.5,9.1,24.8C222.1,93.6,222.1,93.6,222.1,93.7z M210,72.8c-0.8,3.6-1.9,7.2-3.3,10.6h6.5
		C211.9,79.9,210.5,76.5,210,72.8z"/>
	<path id="Path_166" class="st3" d="M289.2,84c-1.9,4-4.7,7.3-7.1,11l-4.4-1.9c0.1-0.2,0.2-0.3,0.3-0.5c2.6-3.7,5.2-7.3,7.8-11
		c0.2-0.2,0.2-0.6,0-0.9c-2.2-3.4-4.4-6.7-6.6-10.1c-0.1-0.2-0.2-0.3-0.3-0.5l4.8-2.2l6.2,10c1.7-3.5,4.3-6.6,6.4-10l4.4,1.9
		c-0.1,0.2-0.2,0.4-0.3,0.5c-2.4,3.4-4.9,6.8-7.3,10.2c-0.2,0.2-0.2,0.6,0,0.9c2.3,3.6,4.7,7.2,7,10.8c0.1,0.2,0.2,0.4,0.4,0.6
		l-4.7,2.3C293.5,91.3,290.9,88,289.2,84z"/>
	<path id="Path_167" class="st3" d="M268.2,68.4v4h-9.8v6.7h9.7c0,1.3,0,2.5,0,3.8c0,0.1-0.3,0.2-0.5,0.2c-1.4,0-2.8,0-4.2,0h-5.1
		v7.3h9.8v4h-15.1c0.1-8.6,0.1-17.3,0.2-26L268.2,68.4z"/>
	<path id="Path_171" class="st2" d="M247.5,35.5v4h-6.8v22h-5.2v-22h-6.7v-4L247.5,35.5z"/>
	<path id="Path_172" class="st2" d="M251.7,39.5v-4h18.7v4h-6.8v22h-5.2v-22H251.7z"/>
	<path id="Path_173" class="st3" d="M232,68.4h5.1v21.9h9.1v4h-14.4C231.9,85.7,231.9,77.1,232,68.4z"/>
	<path id="Path_174" d="M248.1,56.4c0.1,1.6,0,3.1,0.1,4.7h-1.1c0,0,0-0.1,0-0.1c0-1.8,0-3.7,0-5.5c0-0.1,0-0.2,0.1-0.2
		c0.4-0.1,0.8-0.2,1.1-0.3c0.1,0,0.1,0,0.1,0.1c0.8,1.3,1.5,2.7,2.3,4c0.1,0.2,0.2,0.5,0.3,0.7c-0.1-1.6,0-3.1-0.1-4.7h1.1
		c0,0,0,0.1,0,0.1c0,1.8,0,3.7,0,5.5c0,0.1,0,0.1-0.1,0.2c-0.4,0.1-0.8,0.2-1.1,0.3c-0.1,0-0.1,0-0.1-0.1c-0.8-1.4-1.5-2.7-2.3-4.1
		C248.3,56.9,248.2,56.7,248.1,56.4z"/>
	<path id="Path_175" d="M267.8,55.1c0.8,0,1.6,0,2.3,0c0.5,0,0.9,0.1,1.3,0.3c0.6,0.3,1.1,0.8,1.3,1.4c0.3,0.8,0.3,1.6-0.1,2.4
		c-0.4,1-1.3,1.7-2.3,1.8c-0.2,0.1-0.5,0.1-0.8,0.1c-0.6,0-1.3,0-1.9,0C267.8,59.1,267.8,57.1,267.8,55.1z M269,56v4.3
		c0.2,0,0.5,0,0.7,0c0.6,0,1.3-0.3,1.6-0.9c0.5-0.7,0.5-1.6,0.2-2.4c-0.2-0.5-0.6-0.9-1.2-1C269.9,55.9,269.4,55.9,269,56z"/>
	<path id="Path_176" d="M230.7,55.2h1.1c0,0,0,0.1,0,0.1c0,1.2,0,2.5,0,3.7c0,0.6-0.2,1.2-0.7,1.7c-0.4,0.3-0.8,0.5-1.3,0.5
		c-0.5,0.1-1,0-1.5-0.1c-0.7-0.2-1.2-0.8-1.3-1.6c0-0.2,0-0.4,0-0.6c0-1.2,0-2.4,0-3.6c0,0,0-0.1,0-0.1h1.2c0,0,0,0.1,0,0.1
		c0,1.2,0,2.4,0,3.6c0,0.2,0,0.3,0,0.5c0.1,0.5,0.5,0.9,1,0.9c0.6,0.1,1.2-0.2,1.4-0.7c0.1-0.2,0.1-0.5,0.1-0.7c0-1.2,0-2.4,0-3.6
		C230.7,55.3,230.7,55.2,230.7,55.2z"/>
</g>
<g id="Outline" transform="translate(-14659 2473)">
	<path id="Path_159" class="st4" d="M14800-2385.3h-18.3c-3.7,0-6.7-3-6.7-6.7v-43.3c0-3.7,3-6.7,6.7-6.7h43.3c3.7,0,6.7,3,6.7,6.7
		v28.3h-3.3v-28.3c0-1.8-1.5-3.3-3.3-3.3h-43.3c-1.8,0-3.3,1.5-3.3,3.3v43.3c0,1.8,1.5,3.3,3.3,3.3h18.3V-2385.3z"/>
	<path id="Path_160" class="st4" d="M14796.7-2392h-10c-0.9,0-1.7-0.7-1.7-1.7v-40c0-0.9,0.7-1.7,1.7-1.7h20c8.3,0,15,6.7,15,15
		s-6.7,15-15,15h-8.3v11.7C14798.3-2392.7,14797.6-2392,14796.7-2392z M14788.3-2395.3h6.7v-11.7c0-0.9,0.7-1.7,1.7-1.7h10
		c6.4-0.1,11.6-5.3,11.6-11.8c-0.1-6.4-5.2-11.5-11.6-11.6h-18.3V-2395.3z M14806.7-2415.3h-10c-0.9,0-1.7-0.7-1.7-1.7v-6.7
		c0-0.9,0.7-1.7,1.7-1.7h10c2.8,0,5,2.2,5,5S14809.4-2415.3,14806.7-2415.3z M14798.3-2418.7h8.3c0.9,0,1.6-0.8,1.6-1.7
		c0-0.9-0.7-1.6-1.6-1.6h-8.3L14798.3-2418.7z"/>
	<path id="Path_161" class="st4" d="M14872.8-2376.5c-1.3-1.3-3.1-2.1-5-2.1l-6.8-20.4c-0.9-2.7-3.5-4.6-6.3-4.6h-39.5
		c-2.9,0-5.4,1.8-6.3,4.6l-6.8,20.4c-4,0.1-7.1,3.4-7.1,7.4v12.6c0,3.7,3,6.7,6.7,6.7h11.7v6.7h-10v-3.3h-3.3v3.3
		c0,1.8,1.5,3.3,3.3,3.3h10c1.8,0,3.3-1.5,3.3-3.3v-6.7h36.7v6.7c0,1.8,1.5,3.3,3.3,3.3h10c1.8,0,3.3-1.5,3.3-3.3v-6.9
		c2.9-0.8,5-3.4,5-6.5v-12.6C14875-2373.3,14874.2-2375.1,14872.8-2376.5L14872.8-2376.5z M14815.3-2400.3h39.5
		c1.4,0,2.7,0.9,3.2,2.3l0.4,1.1h-46.5l0.4-1.1C14812.6-2399.4,14813.8-2400.3,14815.3-2400.3z M14810.6-2393.7h48.7l5,15h-58.7
		L14810.6-2393.7z M14866.7-2345.3h-10v-6.7h10V-2345.3z M14871.7-2358.7c0,1.8-1.5,3.3-3.3,3.3h-66.7c-1.8,0-3.3-1.5-3.3-3.3v-12.6
		c0-2.2,1.8-4,4-4h65.3c2.2,0,4,1.8,4,4L14871.7-2358.7z"/>
	<path id="Path_162" class="st4" d="M14808.3-2372c-3.7,0-6.7,3-6.7,6.7s3,6.7,6.7,6.7s6.7-3,6.7-6.7l0,0
		C14815-2369,14812-2372,14808.3-2372z M14808.3-2362c-1.8,0-3.3-1.5-3.3-3.3s1.5-3.3,3.3-3.3s3.3,1.5,3.3,3.3
		S14810.2-2362,14808.3-2362L14808.3-2362z"/>
	<path id="Path_163" class="st4" d="M14861.7-2372c-3.7,0-6.7,3-6.7,6.7s3,6.7,6.7,6.7s6.7-3,6.7-6.7c0,0,0,0,0,0
		C14868.3-2369,14865.3-2372,14861.7-2372z M14861.7-2362c-1.8,0-3.3-1.5-3.3-3.3s1.5-3.3,3.3-3.3s3.3,1.5,3.3,3.3
		S14863.5-2362,14861.7-2362C14861.7-2362,14861.7-2362,14861.7-2362z"/>
	<path id="Path_164" class="st4" d="M14818.3-2370.3h33.3v3.3h-33.3V-2370.3z"/>
	<path id="Path_165" class="st4" d="M14818.3-2363.7h33.3v3.3h-33.3V-2363.7z"/>
</g>
</svg>
