<svg xmlns="http://www.w3.org/2000/svg" width="24" height="16.875" viewBox="0 0 24 16.875">
  <g id="mail" transform="translate(0 -76)">
    <g id="Group_2069" data-name="Group 2069" transform="translate(0 76)">
      <path id="Path_51" data-name="Path 51" d="M21.891,76H2.109A2.113,2.113,0,0,0,0,78.109V90.766a2.113,2.113,0,0,0,2.109,2.109H21.891A2.112,2.112,0,0,0,24,90.766V78.109A2.111,2.111,0,0,0,21.891,76Zm-.3,1.406-8.1,8.061a2.109,2.109,0,0,1-2.984,0l-8.1-8.06ZM1.406,90.479V78.4l6.077,6.045Zm1,.989L8.48,85.433l1.034,1.029a3.516,3.516,0,0,0,4.971,0l1.035-1.03,6.074,6.036Zm20.188-.989-6.077-6.038L22.594,78.4Z" transform="translate(0 -76)" fill="#fff"/>
    </g>
  </g>
</svg>
