<svg xmlns="http://www.w3.org/2000/svg" xmlns:xlink="http://www.w3.org/1999/xlink" width="112.001" height="112.166" viewBox="0 0 112.001 112.166">
  <defs>
    <clipPath id="clip-path">
      <rect width="112.001" height="112.166" fill="none"/>
    </clipPath>
  </defs>
  <g id="sown" clip-path="url(#clip-path)">
    <g id="sown-2" data-name="sown" transform="translate(0.999 1.165)">
      <path id="Path_80" data-name="Path 80" d="M108.885,46.977a3.225,3.225,0,0,0-2.575-.75q-2.43.357-4.807.883V5.607A3.223,3.223,0,0,0,98.28,2.384H85.171a3.223,3.223,0,0,0-3.223,3.223v6.442L68.933.787a3.223,3.223,0,0,0-4.218,0L33.461,27.833c-.014.012-.024.025-.037.038a3.212,3.212,0,0,0-1.077,2.4v15.37L4.662,31.829A3.235,3.235,0,0,0,0,34.713v72.066A3.223,3.223,0,0,0,3.224,110H106.779A3.223,3.223,0,0,0,110,106.778V49.416A3.224,3.224,0,0,0,108.885,46.977Zm-5.329,40.105A30.544,30.544,0,0,0,88.2,103.556H81.334a37.035,37.035,0,0,1,22.222-23.479Zm-35.61,16.474c3.629-17.372,18.36-33,35.61-37.137v6.843a43.5,43.5,0,0,0-28.927,30.293ZM88.393,8.83h6.664V23.393l-6.664-5.767Zm-49.6,22.913L66.824,7.485,95.057,31.917V48.855a68.026,68.026,0,0,0-11.444,4.9V45.223c-.919-22.114-32.466-22.1-33.377,0v9.342L38.793,48.856Zm.574,71.813L6.446,87.133V80.786l42.089,21c-.109.589-.212,1.179-.306,1.772ZM6.446,67.236,51.861,89.892q-1.018,2.676-1.811,5.443L6.446,73.583Zm48,16.742-48-23.945V53.471L57.275,78.829q-1.53,2.516-2.833,5.149ZM69.3,64.078l-12.623-6.3V45.223c.564-13.561,19.928-13.55,20.486,0v12.5A69.873,69.873,0,0,0,69.3,64.078Zm-4.721,4.848q-1.94,2.192-3.673,4.515L6.446,46.269V39.922ZM6.446,94.335l18.482,9.22H6.446Zm52.365-4.443c.019-.035.039-.069.057-.105a3.237,3.237,0,0,0,.161-.392,61.369,61.369,0,0,1,5.421-9.815,3.2,3.2,0,0,0,.269-.39,62.91,62.91,0,0,1,38.836-25.932V59.8C82.812,64.07,65.139,82.715,61.363,103.556h-6.6A61.689,61.689,0,0,1,58.812,89.893Zm36.45,13.663a24.131,24.131,0,0,1,8.294-9.109v9.109Z" transform="translate(0 0)" fill="#8e846f" stroke="#fff" stroke-width="2"/>
      <path id="Path_81" data-name="Path 81" d="M12.923,26.047a12.926,12.926,0,0,0,12.922-12.9C25.135-3.969.708-3.964,0,13.146A12.926,12.926,0,0,0,12.923,26.047Zm0-19.357A6.473,6.473,0,0,1,19.4,13.146c-.355,8.564-12.6,8.562-12.953,0A6.473,6.473,0,0,1,12.923,6.69Z" transform="translate(0 -0.244)" fill="#8e846f" stroke="#fff" stroke-width="2"/>
    </g>
  </g>
</svg>
