
<svg xmlns="http://www.w3.org/2000/svg" width="24.002" height="24" viewBox="0 0 24.002 24">
  <g id="telephone" transform="translate(0 -0.019)">
    <g id="Group_2060" data-name="Group 2060" transform="translate(0 2.13)">
      <g id="Group_2059" data-name="Group 2059" transform="translate(0)">
        <path id="Path_46" data-name="Path 46" d="M21.245,61.042l-3.5-3.5a1.866,1.866,0,0,0-2.64,0l-1.02,1.02a17.185,17.185,0,0,1-5.71-5.71l1.118-1.118a1.869,1.869,0,0,0,0-2.64l-3.5-3.5a1.866,1.866,0,0,0-2.642,0l-2.2,2.217a3.341,3.341,0,0,0-.943,3.71A24.94,24.94,0,0,0,15.414,66.729a3.371,3.371,0,0,0,3.559-.777l.037-.035,2.236-2.236A1.869,1.869,0,0,0,21.245,61.042ZM20.13,62.567l-2.185,2.185a.777.777,0,0,0-.076.072,1.785,1.785,0,0,1-1.936.416A23.35,23.35,0,0,1,1.7,51a1.779,1.779,0,0,1,.485-2,.791.791,0,0,0,.061-.055l2.225-2.242a.289.289,0,0,1,.409,0l3.5,3.5a.29.29,0,0,1,0,.409L6.829,52.167a.789.789,0,0,0-.129.945,18.763,18.763,0,0,0,7.124,7.124.789.789,0,0,0,.945-.129l1.451-1.451a.29.29,0,0,1,.409,0l3.5,3.5A.29.29,0,0,1,20.13,62.567Z" transform="translate(0 -45.045)" fill="#fff"/>
      </g>
    </g>
    <g id="Group_2062" data-name="Group 2062" transform="translate(11.817 6.175)">
      <g id="Group_2061" data-name="Group 2061">
        <path id="Path_47" data-name="Path 47" d="M252.868,131.332a.789.789,0,0,0,0,1.577,3.667,3.667,0,0,1,3.663,3.663.789.789,0,1,0,1.577,0A5.246,5.246,0,0,0,252.868,131.332Z" transform="translate(-252.079 -131.332)" fill="#fff"/>
      </g>
    </g>
    <g id="Group_2064" data-name="Group 2064" transform="translate(11.817 3.079)">
      <g id="Group_2063" data-name="Group 2063">
        <path id="Path_48" data-name="Path 48" d="M252.868,65.3a.789.789,0,0,0,0,1.577,6.766,6.766,0,0,1,6.758,6.758.789.789,0,1,0,1.577,0A8.345,8.345,0,0,0,252.868,65.3Z" transform="translate(-252.079 -65.304)" fill="#fff"/>
      </g>
    </g>
    <g id="Group_2066" data-name="Group 2066" transform="translate(11.817 0.019)">
      <g id="Group_2065" data-name="Group 2065" transform="translate(0 0)">
        <path id="Path_49" data-name="Path 49" d="M260.925,3.357A11.322,11.322,0,0,0,252.867.019a.789.789,0,0,0,0,1.577,9.83,9.83,0,0,1,9.819,9.819.789.789,0,1,0,1.577,0A11.322,11.322,0,0,0,260.925,3.357Z" transform="translate(-252.078 -0.019)" fill="#fff"/>
      </g>
    </g>
  </g>
</svg>
